<svg xmlns="http://www.w3.org/2000/svg" xmlns:xlink="http://www.w3.org/1999/xlink" width="3977" height="654" viewBox="0 0 3977 654"><defs><path id="m3goa" d="M2916.95 735.8c-.5 2.86-.12 5.76-.12 9.2h-11.43l-986.4-.03V1238H-1V744.97h-13.82c-342.4 0-684.8.02-1027.2 0-14.82 0-12.32.76-13-5.6-.95-9.08 5.52-17.36 13.67-25.34 2.38-2.33 9.2-3.82 14.3-5.48 4.77-1.56 9.95-2.87 14.98-4.26a68.57 68.57 0 0 1 27.22-2c25.06 3.34 48.49.42 72.22-2.87 12.2-1.7 25.03-3.18 37.68-3.37 29.47-.44 58.2-2 86.6-5.84 15.02-2.04 31.36-2.05 46.95-3.36 8.88-.75 17.3-2.6 26.16-3.38 16.52-1.47 33.27-2.4 49.82-3.82 5.73-.49 11.72-1.36 16.56-2.76a49.62 49.62 0 0 1 25.38-.57c11.97 2.78 24.9 3.8 37.88 4.2 5.26.15 10.98-1.6 16.23-2.7 9.76-2.1 19.6-4.14 28.9-6.6 7.92-2.1 14.16-5 18.74-8.82 2.18-1.83 8.04-3.62 12.67-3.87 18.64-1.03 31.6-5.82 40.83-12.43 15.65-11.22 37.2-19.92 58.12-28.91 8.68-3.73 15.2-3.3 22.09 1.06 3.42 2.17 6.04 4.59 9.45 6.76a87.9 87.9 0 0 0 9.5 5.06c2.98 1.41 5.92 1.97 10.13.3a14.24 14.24 0 0 1 12.21.58c5.9 3.28 12.44 6.34 18.65 9.5 2.35 1.21 4.55 2.42 8.54 1.19a3.6 3.6 0 0 1 1.45-.05c8.72 2.15 15.09-.51 21.85-2.17 10.02-2.47 16.87.89 24.46 2.65 6.58 1.53 12.77 3.4 19.15 5.1a24.75 24.75 0 0 0 12.17.46c8.62-1.81 17.5-3.25 27.1-.97 1.12.26 3.69-.29 5.1-.75 8.92-2.95 18.34-5.68 26.33-9.08 6.7-2.86 14.45-4.07 22.81-5.14 3.1-.4 6.33-1.17 8.6-2.17 11.91-5.28 23.51-10.7 35.28-16.04 1.37-.61 3.06-1.45 4.72-1.52 8.26-.3 14.24-3.12 21.27-4.05 10.64-1.4 16.4-5.13 24.62-7.61 11.03-3.32 21.73-6.9 33.22-9.85 10.87-2.79 17.38-1.43 25.33 2.9 12.18 6.66 25.51 12.89 38.12 19.38 4.52 2.34 8.46 4.9 12.5 7.4 5.77 3.58 11.92 6.6 23.37 5.26 1.73-.2 4.65.6 6.18 1.3 6.82 3.15 13.86 5.61 24.47 6.12 9.7.47 14.88 4.48 20.19 7.74 4.94 3.03 9.74 6.24 12.96 9.67 4.5 4.8 13.28 6.53 23.16 7.28 13.06.99 24.98 2.58 33.6 7.48 1.96 1.11 4.9 1.86 7.3 2.83 4.22 1.73 12.27 2.33 8.38 6.44-.71.76 3.07 2.37 5 3.76 1.26.46 6.77 2.9 11.14.83 3.93-2.9 8.47-4.06 14.82-1.85 3.86 1.34 7.5 2.8 11.27 4.2 1.71.62 3.3 1.5 5.29 1.77 20.81 2.93 41.87 4.9 63.4 1.57 9.01-1.4 17.56-3.45 26.7-4.64 4.87-.63 11.33-.78 15.67.16 6.97 1.5 12.52.53 17.22-1.08 5.97-2.03 11.41-1.52 17.5-.72 4.22.55 8.65.79 12.82 1.39 14.18 2.03 28.11 1.33 42.57.28 8.5-.62 15.94-1.47 23.46-3.34 10.35-2.56 21.49-4.48 32.24-6.72 2.55-.54 4.89-1.26 7.36-1.87 5.18-1.25 10.12-2.86 15.63-3.64 14.13-1.97 28.65-3.38 42.76-5.38a88.43 88.43 0 0 1 28.79.42c15.14 2.62 31.2 4.2 46.86 6.21.95.12 2.26-.02 2.91.22 9.83 3.67 22.54 3.6 33.81 5.37 4.71.74 8.52 2.57 13.06 3.62 6.24 1.45 12.62 3.52 19.23 3.77 22.13.84 42.17 4.4 62.34 8.11 18.47 3.4 37.15 6.59 56 9.51 5.42.83 11.78.57 17.71.6 24.11.08 48.22.32 71.85 2.59 12.14-1.68 24.91-3.15 37.5-3.34 29.46-.44 58.19-2 86.58-5.84 15.03-2.04 31.37-2.05 46.96-3.36 8.88-.75 17.3-2.6 26.16-3.38 16.52-1.47 33.27-2.4 49.82-3.82 5.73-.49 11.72-1.36 16.56-2.76a49.62 49.62 0 0 1 25.38-.57c11.97 2.78 24.9 3.8 37.88 4.2 5.26.15 10.98-1.6 16.23-2.7 9.76-2.1 19.6-4.14 28.9-6.6 7.92-2.1 14.16-5 18.73-8.82 2.2-1.83 8.05-3.62 12.68-3.87 18.64-1.03 31.6-5.82 40.83-12.43 15.65-11.22 37.2-19.92 58.12-28.91 8.68-3.73 15.2-3.3 22.09 1.06 3.42 2.17 6.04 4.59 9.45 6.76a87.88 87.88 0 0 0 9.5 5.06c2.98 1.41 5.92 1.97 10.13.3a14.24 14.24 0 0 1 12.21.58c5.9 3.28 12.44 6.34 18.65 9.5 2.35 1.21 4.55 2.42 8.54 1.19.36-.1 1.1-.14 1.45-.05 8.72 2.15 15.09-.51 21.85-2.17 10.02-2.47 16.87.89 24.46 2.65 6.58 1.53 12.77 3.4 19.15 5.1a24.75 24.75 0 0 0 12.17.46c8.62-1.81 17.5-3.25 27.1-.97 1.11.26 3.69-.29 5.1-.75 8.92-2.95 18.34-5.68 26.33-9.08 6.7-2.86 14.45-4.07 22.81-5.14 3.1-.4 6.33-1.17 8.6-2.17 11.91-5.28 23.51-10.7 35.28-16.04 1.37-.61 3.06-1.45 4.72-1.52 8.26-.3 14.24-3.12 21.27-4.05 10.64-1.4 16.4-5.13 24.62-7.61 11.03-3.32 21.73-6.9 33.22-9.85 10.87-2.79 17.38-1.43 25.33 2.9 12.18 6.66 25.51 12.89 38.12 19.38 4.52 2.34 8.46 4.9 12.5 7.4 5.77 3.58 11.92 6.6 23.37 5.26 1.73-.2 4.65.6 6.18 1.3 6.82 3.15 13.86 5.61 24.47 6.12 9.7.47 14.88 4.48 20.19 7.74 4.94 3.03 9.74 6.24 12.96 9.67 4.5 4.8 13.28 6.53 23.16 7.28 13.06.99 24.98 2.58 33.6 7.48 1.96 1.11 4.9 1.86 7.3 2.83 4.22 1.73 12.27 2.33 8.38 6.44-.71.76 3.07 2.37 5 3.76 1.26.46 6.77 2.9 11.14.83 3.93-2.9 8.47-4.06 14.82-1.85 3.86 1.34 7.5 2.8 11.27 4.2 1.71.62 3.3 1.5 5.29 1.77 20.81 2.93 41.87 4.9 63.4 1.57 9.01-1.4 17.56-3.45 26.7-4.64 4.87-.63 11.33-.78 15.67.16 6.97 1.5 12.52.53 17.22-1.08 5.97-2.03 11.41-1.52 17.5-.72 4.22.55 8.65.79 12.82 1.39 14.18 2.03 28.11 1.33 42.57.28 8.5-.62 15.94-1.47 23.46-3.34 10.35-2.56 21.49-4.48 32.24-6.72 2.55-.54 4.89-1.26 7.36-1.87 5.18-1.25 10.12-2.86 15.63-3.64 14.13-1.97 28.65-3.38 42.76-5.38a88.43 88.43 0 0 1 28.79.42c15.14 2.62 31.2 4.2 46.86 6.21.95.12 2.26-.02 2.91.22 9.83 3.67 22.54 3.6 33.81 5.37 4.71.74 8.52 2.57 13.06 3.62 6.24 1.45 12.62 3.52 19.23 3.77 22.13.84 42.17 4.4 62.34 8.11 18.47 3.4 37.15 6.59 56 9.51 5.42.83 11.78.57 17.71.6 25.9.08 51.78.36 77.08 3.12 17.77 1.95 35.24 4.45 53.05 6.34 8.88.94 18.24 1.56 27.33 1.43 18.14-.25 31.83 3.17 43.46 9 8.92 4.46 17.94 8.9 27.18 13.23 3.66 1.7 5.56 3.43 5.14 5.87z"/><linearGradient id="m3gob" x1="931.01" x2="930.89" y1="1238" y2="589" gradientUnits="userSpaceOnUse"><stop offset="0" stop-color="#f2f2f2"/><stop offset="1" stop-color="#f8f8f8"/></linearGradient></defs><g><g transform="translate(1058 -586)"><use fill="#f2f2f2" xlink:href="#m3goa"/><use fill="url(#m3gob)" xlink:href="#m3goa"/></g></g></svg>