<svg xmlns="http://www.w3.org/2000/svg" xmlns:xlink="http://www.w3.org/1999/xlink" width="251" height="223" viewBox="0 0 251 223"><defs><path id="fxmna" d="M703.03 2567.3h-.47c-32.43-3.3-53.57-23.97-54.04-24.91a5.2 5.2 0 0 1-.31-.34l-1.1-1.07-49.8-49.82c-.95-.94-26.79-22.1-30.08-54.99-.47-2.35 1.41-4.7 4.23-5.17 2.82-.47 4.7 1.4 5.17 4.23a64.28 64.28 0 0 0 6.62 22.29c1-3.94 2.87-7.93 5.6-11.95 1.88-2.82 11.74-10.82 15.5-14.57l.47-.47a6.29 6.29 0 0 0 3.3-3.76c.93-2.82 0-6.58-2.36-10.34 0-.47-18.8-31.96-34.3-39.95-4.7-2.82-11.28-1.88-15.5 2.35l-11.75 11.75c-20.68 20.68-24.9 43.71-12.69 70.03a94.25 94.25 0 0 0 18.8 26.32l96.32 96.82c6.58 6.58 13.63 12.22 20.67 15.97 28.67 15.99 53.57 12.7 75.65-9.4l11.75-11.74a13.57 13.57 0 0 0 2.35-15.98c-7.99-15.5-39.94-34.31-39.94-34.31-3.43-1.72-6.85-2.65-9.57-2.44l-.3.09c-1.88.47-2.81 1.41-3.75 3.29l-.47.47c-3.3 4.23-11.28 13.63-14.57 15.51a38.89 38.89 0 0 1-10.96 5.38 80.2 80.2 0 0 0 26 7.31 5.1 5.1 0 0 1 4.22 5.17c-.47 2.35-2.35 4.23-4.7 4.23zm-99.62-83.66c.32.24.6.53.83.86l49.45 49.9c9.4 9.4 18.32 10.34 29.6 2.82 1.41-.94 7.52-7.52 12.22-13.63a15.41 15.41 0 0 1 9.4-7.05c1.56-.43 3.2-.64 4.91-.64 4.08 0 8.5 1.15 12.47 3.46.88.58 13.92 8.25 25.92 18.26 25.33-20.68 39.4-50.72 39.4-83.12 0-59.7-48.4-108.1-108.08-108.1a106.27 106.27 0 0 0-83.1 39.4c10 12 17.67 25.05 18.26 25.93 3.29 6.1 4.7 12.22 3.29 17.39a14.12 14.12 0 0 1-2.54 5.09 13.05 13.05 0 0 1-2.65 2.84c-.6.52-1.22 1.01-1.86 1.47a282 282 0 0 0-13.63 12.22c-7.51 11.28-6.57 19.74 2.82 29.6l3.14 3.17.15.13zM766 2557.43c4.7 8.93 3.29 20.21-4.23 27.26L750 2596.9c-14.56 14.58-31 22.1-48.4 22.1-12.21 0-25.37-3.76-38.52-11.28-8-4.23-15.51-10.34-23.03-17.86l-96.32-96.35c-8.93-8.93-15.98-18.8-20.68-28.67-14.1-30.09-8.92-57.34 14.57-80.84l11.75-11.75c7.04-7.05 18.32-8.93 27.25-4.23 4.42 2.33 8.93 6.1 13.23 10.48 22.48-26.18 54.8-41.5 89.67-41.5 64.84 0 117.47 52.64 117.47 117.5 0 34.77-15.22 67.42-41.64 89.55 4.44 4.34 8.27 8.9 10.63 13.38zm-86.46-187.53c-2.82 0-4.7-1.88-4.7-4.7v-9.4c0-2.82 1.88-4.7 4.7-4.7 2.82 0 4.7 1.88 4.7 4.7v9.4c0 2.82-1.88 4.7-4.7 4.7zm98.68 89.3h-9.4c-2.82 0-4.7-1.88-4.7-4.7 0-2.82 1.88-4.7 4.7-4.7h9.4c2.81 0 4.7 1.88 4.7 4.7 0 2.82-1.89 4.7-4.7 4.7zm-35.72-62.98a4.26 4.26 0 0 1-3.28-1.41 4.55 4.55 0 0 1 0-6.58l6.57-6.58a4.54 4.54 0 0 1 6.58 0 4.54 4.54 0 0 1 0 6.58l-6.58 6.58a4.26 4.26 0 0 1-3.29 1.4zm6.58 132.54a4.28 4.28 0 0 1-3.29-1.4l-6.57-6.6a4.54 4.54 0 0 1 0-6.57 4.54 4.54 0 0 1 6.57 0l6.58 6.58a4.55 4.55 0 0 1 0 6.58c-.47 1.4-1.88 1.4-3.29 1.4zm-132.5-132.54a4.26 4.26 0 0 1-3.29-1.41l-6.58-6.58a4.54 4.54 0 0 1 0-6.58 4.54 4.54 0 0 1 6.58 0l6.58 6.58a4.55 4.55 0 0 1 0 6.58 5.06 5.06 0 0 1-3.3 1.4zm58.26-7.52c0-2.82 1.88-4.7 4.7-4.7 2.82 0 4.7 1.88 4.7 4.7v61.1h28.2c2.81 0 4.7 1.88 4.7 4.7 0 2.82-1.89 4.7-4.7 4.7h-32.9c-2.82 0-4.7-1.88-4.7-4.7z"/></defs><g><g clip-path="url(#clip-12185)" opacity=".1" transform="translate(-515 -2337)"><use fill="#464646" xlink:href="#fxmna"/></g></g></svg>