<svg
        xmlns="http://www.w3.org/2000/svg"
        xmlns:xlink="http://www.w3.org/1999/xlink"
        width="26px" height="26px">
    <path fill-rule="evenodd"  fill="rgb(54, 54, 54)"
          d="M25.220,12.587 C24.789,12.587 24.440,12.238 24.440,11.807 C24.440,9.070 23.374,6.496 21.438,4.560 C19.503,2.625 16.929,1.558 14.191,1.558 C13.761,1.558 13.412,1.209 13.412,0.779 C13.412,0.348 13.761,-0.001 14.191,-0.001 C17.345,-0.001 20.311,1.227 22.541,3.458 C24.772,5.688 26.000,8.653 26.000,11.807 C26.000,12.238 25.651,12.587 25.220,12.587 ZM14.192,7.910 L14.192,7.910 C15.248,7.910 16.201,8.304 16.947,9.051 C17.694,9.798 18.089,10.751 18.089,11.807 C18.089,12.237 17.740,12.586 17.309,12.586 C16.878,12.586 16.529,12.237 16.529,11.807 C16.529,11.174 16.292,10.602 15.845,10.154 C15.390,9.700 14.834,9.469 14.192,9.469 C14.192,9.469 14.192,9.469 14.192,9.469 C13.761,9.469 13.412,9.120 13.412,8.689 C13.412,8.259 13.761,7.910 14.192,7.910 ZM14.192,3.954 C16.289,3.954 18.261,4.771 19.744,6.254 C21.228,7.738 22.044,9.710 22.044,11.807 C22.044,12.238 21.695,12.586 21.265,12.586 C20.834,12.586 20.485,12.237 20.485,11.807 C20.485,10.126 19.830,8.546 18.642,7.357 C17.453,6.169 15.873,5.514 14.192,5.514 C13.761,5.514 13.412,5.165 13.412,4.734 C13.412,4.303 13.761,3.954 14.192,3.954 ZM9.428,9.611 C9.124,9.915 8.725,10.067 8.325,10.067 C8.180,10.067 8.034,10.046 7.893,10.006 L7.392,10.506 C7.392,10.506 7.392,10.506 7.392,10.506 C7.037,10.862 7.583,13.072 10.255,15.744 C12.927,18.416 15.137,18.962 15.492,18.607 C15.493,18.606 15.493,18.606 15.493,18.606 L15.993,18.106 C15.841,17.578 15.972,16.985 16.387,16.570 L17.712,15.246 C18.320,14.637 19.310,14.637 19.918,15.246 L25.012,20.340 C25.621,20.948 25.621,21.937 25.012,22.546 L23.688,23.871 C23.393,24.165 23.001,24.327 22.585,24.327 C22.436,24.327 22.291,24.306 22.152,24.265 L21.874,24.544 C20.908,25.509 19.561,25.999 17.946,25.999 C16.960,25.999 15.875,25.817 14.715,25.449 C11.828,24.534 8.769,22.562 6.103,19.895 C3.436,17.229 1.464,14.171 0.549,11.283 C-0.385,8.334 -0.121,5.868 1.288,4.301 C1.309,4.274 1.733,3.847 1.733,3.847 C1.582,3.319 1.713,2.726 2.128,2.311 L3.453,0.986 C3.748,0.692 4.139,0.529 4.556,0.529 C4.972,0.529 5.364,0.692 5.658,0.986 L10.753,6.081 C11.361,6.689 11.361,7.678 10.753,8.287 L9.428,9.611 ZM22.585,22.768 C22.585,22.768 23.910,21.443 23.910,21.443 L18.815,16.348 L17.490,17.673 L22.585,22.768 ZM2.558,5.228 L2.558,5.228 C1.436,6.350 1.250,8.333 2.036,10.812 C2.877,13.466 4.713,16.300 7.206,18.793 C9.699,21.286 12.533,23.122 15.187,23.962 C17.665,24.748 19.649,24.562 20.771,23.441 C20.771,23.441 20.771,23.440 20.771,23.440 L20.912,23.300 L16.958,19.346 L16.596,19.708 C16.596,19.708 16.595,19.708 16.595,19.709 C16.217,20.087 15.720,20.256 15.147,20.256 C13.442,20.256 11.068,18.763 9.152,16.847 C6.592,14.286 4.786,10.909 6.289,9.404 C6.289,9.403 6.289,9.403 6.290,9.403 L6.652,9.041 L2.698,5.087 L2.558,5.228 ZM4.556,2.089 L3.231,3.413 L5.778,5.961 L8.306,8.489 L8.325,8.508 C8.326,8.509 8.326,8.509 8.326,8.509 L9.650,7.183 L4.556,2.089 Z"/>
</svg>