<svg xmlns="http://www.w3.org/2000/svg" xmlns:xlink="http://www.w3.org/1999/xlink" width="30" height="38" viewBox="0 0 30 38"><defs><path id="jc0fa" d="M959.01 2434c8.27 0 15.02 6.8 14.98 15.18 0 1.09-.1 2.17-.32 3.21 0 .07-.03.13-.03.2-1.66 7.33-13.23 18.56-13.72 19.05-.26.23-.58.36-.9.36-.33 0-.66-.1-.91-.36-.5-.46-12.13-11.72-13.79-19.21 0-.1-.03-.16-.03-.23a15.12 15.12 0 0 1 14.72-18.2zm12.07 17.9a12.46 12.46 0 0 0-12.1-15.25 12.46 12.46 0 0 0-12.06 15.22c1.23 5.56 9.34 14.14 12.1 16.92 2.75-2.78 10.82-11.36 12.06-16.79zm-12.07-9.36a5.04 5.04 0 0 1 5.03 5.07 5.06 5.06 0 0 1-5.03 5.08 5.07 5.07 0 0 1 0-10.15zm0 7.5a2.4 2.4 0 0 0 2.4-2.43 2.4 2.4 0 1 0-4.8 0 2.4 2.4 0 0 0 2.4 2.43z"/></defs><g><g transform="translate(-944 -2434)"><use fill="#363636" xlink:href="#jc0fa"/></g></g></svg>