<svg xmlns="http://www.w3.org/2000/svg" xmlns:xlink="http://www.w3.org/1999/xlink" width="44" height="138" viewBox="0 0 44 138"><defs><path id="gtmta" d="M720 1463v-23h23v23zm2.37-11.5a9.12 9.12 0 1 0 18.25 0 9.12 9.12 0 0 0-18.25 0z"/><path id="gtmtb" d="M715 1468v-33h33v33zm2.84-16.5a13.66 13.66 0 1 0 27.32 0 13.66 13.66 0 0 0-27.32 0z"/><path id="gtmtc" d="M709 1474v-45h45v45zm2-22.5a20.5 20.5 0 1 0 41 0 20.5 20.5 0 0 0-41 0z"/><path id="gtmtd" d="M740.69 1490.4l4.83 3.18s3.43 1.81.54 3.41l-3.55 1.38s-1.82 1.28-1.93 3.5c0 0 1.24 4.28-5.44 4.92 0 0-11.11-.4-14.17 4.94 0 0-7.49 9.65 1.05 16.5 0 0 1.34.9.42 1.7 0 0-.37 1.07-2.73-1.17 0 0-6.82-5.2-4.56-15.83 0 0 .32-3.4 3.43-6.27 0 0 2.47-2.23 3.11-4.36 0 0 1.05-1.97 1.77-2.05 0 0 1.86-.87-.32-1.99 0 0-1.6-.32-.56-2.23 0 0 .8-1.43 2.33-1.43 0 0 2.58.08 1.93-1.92 0 0-1.44-2.4 1.78-2.87 0 0 3.13.32 2.57-.64 0 0-4.67-.32-4.1-4.06 0 0-.16-2.47 4.83-2.4 0 0 5.71.25 5.8 3.51 0 0 .63 3 2.97 4.17zm10.36-3.25l-.7 3.24s-.8 1.81-4.4.43c0 0-2.32-.05-4.74-2.6 0 0-1.08-1.04-1.53-2.36 0 0-1.62-2.85-4.73-3.38 0 0-.91.1-1.34-1.39 0 0-.06-.9-1.02-.1 0 0-2.15 2.07-4.94-.05 0 0-1.85-1.33-1.2-3.8 0 0 .31-3.07 5.02-3.5 0 0 5.52-.45 7.13 3.34 0 0 .6 2.47 2.17 3.34 0 0 1.49.45 2.3.48l8.04.92s1.76.03-.06 5.43zm.98-12.95l-.08 3.32s-.45 1.92-4.24 1.22c0 0-2.3.37-5.14-1.69 0 0-1.26-.82-1.94-2.03 0 0-2.13-2.51-5.29-2.46 0 0-.88.27-1.58-1.12 0 0-.22-.88-1.02.08 0 0-1.72 2.43-4.86.85 0 0-2.07-.96-1.9-3.5 0 0-.25-3.08 4.3-4.38 0 0 5.33-1.44 7.62 2 0 0 1.06 2.31 2.76 2.88 0 0 1.55.17 2.35.06l8.08-.58s1.73-.29.94 5.35zm-1.23-12.98l.35 3.3s-.2 1.97-4.04 1.77c0 0-2.22.66-5.32-1.02 0 0-1.36-.64-2.2-1.76 0 0-2.44-2.2-5.56-1.75 0 0-.84.38-1.71-.9 0 0-.34-.85-1 .21 0 0-1.4 2.64-4.71 1.48 0 0-2.18-.69-2.35-3.24 0 0-.66-3.01 3.68-4.88 0 0 5.1-2.12 7.82.97 0 0 1.35 2.16 3.12 2.52 0 0 1.55-.05 2.33-.26l7.94-1.62s1.67-.51 1.65 5.18zm-3.03-12l.51 3.17s-.1 1.9-3.83 1.9c0 0-2.12.74-5.2-.74 0 0-1.35-.56-2.21-1.6 0 0-2.47-2.02-5.48-1.43 0 0-.78.4-1.7-.8 0 0-.36-.8-.95.26 0 0-1.22 2.62-4.49 1.66 0 0-2.14-.57-2.43-3.03 0 0-.78-2.89 3.33-4.9 0 0 4.83-2.3 7.62.57 0 0 1.41 2.04 3.14 2.28 0 0 1.5-.1 2.24-.35l7.6-1.94s1.6-.58 1.85 4.94zm-4.14-11.2l.69 2.88s.04 1.76-3.38 2c0 0-1.89.84-4.81-.3 0 0-1.28-.42-2.14-1.31 0 0-2.4-1.69-5.11-.94 0 0-.7.43-1.62-.6 0 0-.39-.7-.86.3 0 0-.92 2.48-3.99 1.82 0 0-2-.37-2.43-2.6 0 0-.93-2.59 2.7-4.72 0 0 4.26-2.44 7.01 0 0 0 1.44 1.76 3.04 1.87 0 0 1.37-.2 2.03-.48l6.83-2.3s1.42-.65 2.04 4.39zm-2.55-9.3l.63 2.63s.05 1.61-3.09 1.83c0 0-1.73.77-4.4-.28 0 0-1.17-.38-1.96-1.2 0 0-2.2-1.54-4.69-.86 0 0-.63.4-1.47-.54 0 0-.36-.65-.8.27 0 0-.84 2.27-3.65 1.67 0 0-1.83-.34-2.23-2.38 0 0-.84-2.37 2.47-4.33 0 0 3.9-2.23 6.43 0 0 0 1.32 1.62 2.78 1.72 0 0 1.25-.2 1.86-.44l6.25-2.11s1.3-.6 1.87 4.02zm-1.26-8.82l.4 2.67s-.1 1.6-3.25 1.57c0 0-1.79.61-4.36-.66 0 0-1.13-.49-1.85-1.37 0 0-2.06-1.73-4.59-1.25 0 0-.67.33-1.42-.68 0 0-.3-.68-.81.2 0 0-1.05 2.2-3.79 1.35 0 0-1.8-.5-2.01-2.56 0 0-.64-2.44 2.84-4.1 0 0 4.09-1.88 6.4.56 0 0 1.17 1.71 2.62 1.94 0 0 1.27-.08 1.9-.28l6.4-1.56s1.36-.47 1.52 4.17zm-1.5-8.99l.21 2.7s-.21 1.6-3.34 1.33c0 0-1.83.48-4.31-.97 0 0-1.1-.56-1.74-1.49 0 0-1.94-1.87-4.5-1.57 0 0-.68.28-1.36-.78 0 0-.25-.7-.83.15 0 0-1.2 2.1-3.87 1.07 0 0-1.76-.61-1.83-2.69 0 0-.45-2.48 3.13-3.9 0 0 4.21-1.58 6.35 1.01 0 0 1.04 1.8 2.47 2.13 0 0 1.27 0 1.91-.15l6.51-1.1s1.38-.38 1.2 4.26zm-.9-8.33l.2 2.6s-.2 1.53-3.23 1.27c0 0-1.76.47-4.15-.92 0 0-1.05-.55-1.67-1.44 0 0-1.86-1.8-4.33-1.52 0 0-.66.28-1.32-.75 0 0-.24-.67-.79.14 0 0-1.16 2.04-3.73 1.05 0 0-1.7-.6-1.76-2.6 0 0-.44-2.4 3-3.75 0 0 4.07-1.54 6.13.97 0 0 1 1.73 2.38 2.04 0 0 1.22 0 1.84-.14l6.27-1.07s1.33-.36 1.16 4.12z"/><path id="gtmte" d="M731.5 1442.37a9.12 9.12 0 1 1 0 18.25 9.12 9.12 0 0 1 0-18.25z"/><path id="gtmtg" d="M731.5 1437.84a13.66 13.66 0 1 1 0 27.32 13.66 13.66 0 0 1 0-27.32z"/><path id="gtmti" d="M731.5 1431a20.5 20.5 0 1 1 0 41 20.5 20.5 0 0 1 0-41z"/><clipPath id="gtmtf"><use fill="#fff" xlink:href="#gtmta"/></clipPath><clipPath id="gtmth"><use fill="#fff" xlink:href="#gtmtb"/></clipPath><clipPath id="gtmtj"><use fill="#fff" xlink:href="#gtmtc"/></clipPath></defs><g><g transform="translate(-710 -1394)"><g><use fill="#b7e3ee" xlink:href="#gtmtd"/></g><g><g><use fill="#86b1b5" xlink:href="#gtmte"/><use fill="#fff" fill-opacity="0" stroke="#4ababb" stroke-linecap="round" stroke-linejoin="round" stroke-miterlimit="50" stroke-width="4" clip-path="url(&quot;#gtmtf&quot;)" xlink:href="#gtmte"/></g><g><use fill="#86b1b5" xlink:href="#gtmtg"/><use fill="#fff" fill-opacity="0" stroke="#4ababb" stroke-linecap="round" stroke-linejoin="round" stroke-miterlimit="50" stroke-width="4" clip-path="url(&quot;#gtmth&quot;)" xlink:href="#gtmtg"/></g><g><use fill="#86b1b5" xlink:href="#gtmti"/><use fill="#fff" fill-opacity="0" stroke="#4ababb" stroke-linecap="round" stroke-linejoin="round" stroke-miterlimit="50" stroke-width="4" clip-path="url(&quot;#gtmtj&quot;)" xlink:href="#gtmti"/></g></g></g></g></svg>