<svg xmlns="http://www.w3.org/2000/svg" xmlns:xlink="http://www.w3.org/1999/xlink" width="59" height="92" viewBox="0 0 59 92"><defs><path id="zoqia" d="M930 1923v-23h23v23zm2.37-11.47a9.12 9.12 0 1 0 18.25 0 9.12 9.12 0 0 0-18.25 0z"/><path id="zoqib" d="M925 1928v-33h33v33zm2.84-16.47a13.66 13.66 0 1 0 27.32 0 13.66 13.66 0 0 0-27.32 0z"/><path id="zoqic" d="M919 1935v-46h45v46zm2-23.47a20.5 20.5 0 1 0 41 0 20.5 20.5 0 0 0-41 0z"/><path id="zoqid" d="M965.55 1863.03s-11.05 34.06-11.05 35.06c0 0-1.38 5.35.75 8.71 0 0 4 4.98-1.63 7.6 0 0-5.42 1.24-7.18-.92 0 0-.16-2.4-4.67-2.74 0 0-5.34-1.65-3.42-6.47 0 0 .83-1.75 2.5-2.74 0 0 9.6-7.3 17.28-38.52zm-20.94 51.74s7.76 3.61 12.02-.37c0 0 1.87-1.87 3.25-.38 0 0 1.75 3-.37 6.36 0 0-2.63 3.49 1.25 11.2l10.64 18.93-7.39 1.5s-10.76-21.55-16.65-25.66c0 0-8.14-3.86-7.01-9.21 0 0 1-2.25 4.26-2.37zm-7.68-10.42s-.84 5.9 4.42 8.47c0 0 1.75 1.41-.5 2.16 0 0-3.76 2.07-6.85-2.82 0 0-3-4.99.84-9.64 0 0 3.17-2.4 2.09 1.83zm23.29 17.44s1.41-1.41 1.33-3.74c0 0 .17-1.74 1.5-1.58 0 0 3.18.25 2 4.57 0 0-1.41 5.23 12.95 26.48l-3.43 1.41s-8.6-18.6-12.27-21.33l-1.6-1.56s-2.65-2.03-.48-4.25z"/><path id="zoqie" d="M941.5 1902.4a9.12 9.12 0 1 1 0 18.26 9.12 9.12 0 0 1 0-18.25z"/><path id="zoqig" d="M941.5 1897.87a13.66 13.66 0 1 1 0 27.32 13.66 13.66 0 0 1 0-27.32z"/><path id="zoqii" d="M941.5 1891.03a20.5 20.5 0 1 1 0 41 20.5 20.5 0 0 1 0-41z"/><clipPath id="zoqif"><use fill="#fff" xlink:href="#zoqia"/></clipPath><clipPath id="zoqih"><use fill="#fff" xlink:href="#zoqib"/></clipPath><clipPath id="zoqij"><use fill="#fff" xlink:href="#zoqic"/></clipPath></defs><g><g transform="translate(-920 -1862)"><g><use fill="#b7e3ee" xlink:href="#zoqid"/></g><g><g><use fill="#86b1b5" xlink:href="#zoqie"/><use fill="#fff" fill-opacity="0" stroke="#4ababb" stroke-linecap="round" stroke-linejoin="round" stroke-miterlimit="50" stroke-width="4" clip-path="url(&quot;#zoqif&quot;)" xlink:href="#zoqie"/></g><g><use fill="#86b1b5" xlink:href="#zoqig"/><use fill="#fff" fill-opacity="0" stroke="#4ababb" stroke-linecap="round" stroke-linejoin="round" stroke-miterlimit="50" stroke-width="4" clip-path="url(&quot;#zoqih&quot;)" xlink:href="#zoqig"/></g><g><use fill="#86b1b5" xlink:href="#zoqii"/><use fill="#fff" fill-opacity="0" stroke="#4ababb" stroke-linecap="round" stroke-linejoin="round" stroke-miterlimit="50" stroke-width="4" clip-path="url(&quot;#zoqij&quot;)" xlink:href="#zoqii"/></g></g></g></g></svg>