<svg xmlns="http://www.w3.org/2000/svg" xmlns:xlink="http://www.w3.org/1999/xlink" width="74" height="84" viewBox="0 0 74 84"><defs><path id="9ohqa" d="M515.38 1919.08a24.8 24.8 0 0 1-1.72-3.58c-1.85-5 5.72-21.6-9.25-33.66-8.43-6.8-19.26-10.42-34.41-1.72-9.73 5.58-16.17 13.45-15.86 21.03.14 3.56.04 7.6.46 10.15.43 2.64 2.74 3.23 2.96 6.4.14 2.02-.82 2.51-1.26 8.4-.32 4.22-1.14 9.46 3.8 8.36l2.93-.64c1.56 2.7.6 3.8 1.1 4.68a2.27 2.27 0 0 0 2.7 1.11s-1.18 2.65 1.06 3.19c2.93.7 3.2 4.01 3.47 5.76.35 2.41 4.12 4.43 7.56 2.82 3.74-1.76 9.9-5.63 10.17-5.8.44-.25 1.19.07 1.66.57.2.2.2.27.25 1.7h33c-2.1-12.23-3.6-20.01-8.62-28.77z"/><path id="9ohqb" d="M466 1908.22v-8.7c0-.9.74-1.62 1.64-1.62h1.29v-3.33c0-.9.73-1.62 1.64-1.62h31.79c.9 0 1.63.72 1.63 1.62v18.73c0 .9-.73 1.62-1.63 1.62h-31.8c-.9 0-1.63-.72-1.63-1.62v-3.46h-1.29c-.9 0-1.64-.73-1.64-1.62zm6.2-12.03v15.5h28.52v-15.5zm26.95 14.01H494v-12.53h5.14z"/></defs><g><g transform="translate(-452 -1870)"><g><use fill="#b7e3ee" xlink:href="#9ohqa"/></g><g><use fill="#4ababb" xlink:href="#9ohqb"/></g></g></g></svg>