<svg xmlns="http://www.w3.org/2000/svg" xmlns:xlink="http://www.w3.org/1999/xlink" width="61" height="111" viewBox="0 0 61 111"><defs><path id="yw4ta" d="M951 1735v-23h23v23zm2.38-11.67a9.12 9.12 0 1 0 18.23-.02 9.12 9.12 0 0 0-18.23.02z"/><path id="yw4tb" d="M946 1739v-32h33v32zm2.84-15.67a13.65 13.65 0 1 0 27.3-.02 13.65 13.65 0 0 0-27.3.02z"/><path id="yw4tc" d="M940 1746v-46h45v46zm2-22.67a20.5 20.5 0 1 0 40.98-.02 20.5 20.5 0 0 0-40.98.02z"/><path id="yw4td" d="M939.22 1678.22c.64 1.6-2.07 1.25-2.07 1.25-1.7.27-2.15-.98-2.15-.98-.86-.91-1.78-5.31-1.78-5.31-.67-3.23.44-3.49.44-3.49 1.6-.27 1.52 1.37 1.52 1.37l.08 1.1a8.37 8.37 0 0 0 2.52 4.43c1.48.88 1.44 1.63 1.44 1.63zm47.78-10.67s1.3-1.75 1.21-3.96l-.13-.88s-.34-1.27.96-1.35c0 0 .92 0 .96 2.67 0 0 .04 3.63-.47 4.5 0 0-.14 1.07-1.53 1.17 0 0-2.07.77-1.85-.6 0 0-.16-.6.85-1.55zm-47.16 14.73a10.46 10.46 0 0 0 4.78 9.27c.95 1.77-1.06 1.65-1.06 1.65-1.55-.28-2.39.8-2.39.8-1.44.8-1.5-2-1.5-2 .22-4.54-3.26-9.11-3.26-9.11-.9-.99-.38-1.97-.38-1.97 0-.8 3.16-1.18 3.16-1.18 1.07.13.65 2.54.65 2.54zm5.34 14.4c1.49 7.5 7.12 9.64 7.12 9.64 1.38 1.82-.6 2.16-.6 2.16-1.59.03-2.12 1.47-2.12 1.47-1.2 1.26-1.99-1.96-1.99-1.96-.98-5.32-5.59-9.8-5.59-9.8-1.13-.94-.88-2.2-.88-2.2-.21-.92 2.76-2.1 2.76-2.1 1.08-.1 1.3 2.8 1.3 2.8zm41.19-26.31s1.22.23 2.11 0c0 0 1.15-.07.78.99 0 0-.18.41-.85.9 0 0-.93.8-.56 4.26 0 0 .22 1.32-1.85.87 0 0-2.82-.46-2.08-1.82 0 0 2.08-1.79 1.48-3.98 0 0-.55-1.98.97-1.22zm-1.8 7.27s1.06.54 2.2.48c0 0 1.25-.02.36 1.4l-.73.71s-1.59 3.83-1.66 9c0 0 .27 2.55-2.45.9 0 0-1.28-1.08-2.17-.8 0 0-1.4-.62-.45-1.82 0 0 3.79-2.73 3.5-8.13 0 0-.5-2.96 1.4-1.74zm-3.95 19.03s-4.84 9.1-5.06 10.47c0 0 0 2.79-2.56 2 0 0-2.23-1.38-.28-4.28 0 0 5.45-5.97 5.5-11.83 0 0-.5-3.47 2.73-2.9 0 0 4.9 1.65-.33 6.54zm-1.3-54s1.8-.1.85 2.78c0 0-.5 2.24.45 4.04 0 0 .78 1.99-2.03 1.76 0 0-2.31.17-1.59-1.48 0 0 1.56-2.08 1.23-4.69 0 0-.56-2.42 1.08-2.42zm-14.9-6.76s1.79-.26 1.13 2.7c0 0-.28 2.28.84 3.96 0 0 .97 1.9-1.84 1.97 0 0-2.28.4-1.73-1.3 0 0 1.35-2.24.76-4.8 0 0-.8-2.35.84-2.53zm-13.43 5.92s1.8-.27 1.13 2.69c0 0-.27 2.28.85 3.96 0 0 .97 1.91-1.85 1.97 0 0-2.28.4-1.72-1.31 0 0 1.34-2.22.75-4.8 0 0-.8-2.34.84-2.51zm26.24 9.85s1.12.22 1.95.04c0 0 1.39-.16.86 1.4 0 0-1.59 5.38-.56 10.35 0 0 .72 1.67-2.58 1.21 0 0-2.78.15-2.08-1.9 0 0 1.82-4.92 1.25-8.86 0 0-.6-2.73 1.16-2.24zm-13.52-6.58s1.13.16 1.94-.08c0 0 1.38-.22.94 1.33 0 0-1.3 5.37 0 10.19 0 0 .81 1.6-2.51 1.33 0 0-2.77.32-2.18-1.74 0 0 1.55-4.93.77-8.77 0 0-.74-2.64 1.04-2.26zm-13.42 5.95s1.14.07 1.94-.2c0 0 1.36-.3 1 1.1 0 0-1.03 4.83.49 8.98 0 0 .89 1.34-2.44 1.35 0 0-2.74.48-2.26-1.37 0 0 1.3-4.47.35-7.79 0 0-.87-2.28.92-2.07zm25.32 14.11s1.56.28 2.67.22c0 0 1.78-.34.61 2.45 0 0-2.39 9.27-1.5 13.82 0 0 1.17 2.85-1.5 1.77 0 0-1.67-1.14-4.28-.91 0 0-1.5-.06-.5-1.94 0 0 3.61-3.1 3.17-13.04 0 0-.67-2.83 1.33-2.37zm-12.8-6.34s1.57.08 2.67-.13c0 0 1.71-.61.95 2.5 0 0-1.04 10.15.49 14.85 0 0 1.56 2.84-1.24 2.08 0 0-1.81-.98-4.37-.37 0 0-1.5.15-.77-1.98 0 0 3.13-3.8 1.28-14.25 0 0-1.07-2.91.98-2.7zm-8.86 6.24c-1.03 9.17 2.17 12.11 2.17 12.11.82 1.75-.6 1.78-.6 1.78a6.86 6.86 0 0 0-4.06.75c-2.56.95-1.3-1.65-1.3-1.65 1.12-4.19-.55-12.8-.55-12.8-.93-2.6.72-2.25.72-2.25 1.04.07 2.51-.16 2.51-.16 1.9-.38 1.1 2.22 1.1 2.22zm16.1 41.6c-.23-.6-2.52-.3-2.52-.3-2.38-.83 0-4.17 0-4.17 2-3.1 2.81-15.77 2.81-15.77.52-3.87 3.5-2.82 3.5-2.82 4.89 1.83 1.55 7.06 1.55 7.06-3.49 6.3-3.64 13.2-3.64 13.2.15 4.17-1.7 2.8-1.7 2.8zm-12.3 1c-1.06-.31-3.2.45-3.2.45-2.76-.11-1.06-4.63-1.06-4.63.91-4.23-2.94-18.84-2.94-18.84-.9-4.56 2.55-4.4 2.55-4.4 5.71.33 4.22 7.43 4.22 7.43a41.28 41.28 0 0 0 1.14 16.2c1.94 3.63-.72 3.78-.72 3.78zm6.35-.5c-.88-.72-3.1-.04-3.1-.04-2.76-.52-.64-4.88-.64-4.88 1.48-4.19-.45-19.73-.45-19.73-.3-4.8 3.15-4.12 3.15-4.12 5.71 1.18 3.26 8.23 3.26 8.23-2.38 8.36-1 16.77-1 16.77 1.69 4.41-1.22 3.76-1.22 3.76zm-13.7 3.33s1.45-.5 2.12-1.3c0 0 1.17-1.37 2.4-.12 0 0 1.89 3.36-.12 5.12 0 0-1.72 1.03-3.56 0 0 0-1.39-.22-1.67-2.16 0 0 0-1.14.84-1.54zm5.3-1.9s1.33-.4 2.44-.18c0 0 2.12 0 2.08 1.74 0 0 .52 3.3-1.86 3.3 0 0-2.26.27-2.44-2.16 0 0-.78-2.65-.23-2.7zm15.96.26c1.78 1.36.67 3.87.67 3.87-.61 4.6-4.56 3.41-4.56 3.41-.62 0-1.45-.97-1.45-.97-.67-.57-.5-4.55-.5-4.55-.04-2.09 1.78-3.38 1.78-3.38a4.2 4.2 0 0 1 4.06 1.62zm-10.13-.63s1.28-.68 2.62.06c0 0 1.28.23 1.17 1.7 0 0-.34 3.65-.11 4.33 0 0 .27.8-.84.96 0 0-2.39-.11-2.9 1.54 0 0-.55 1.14-1.27-.63 0 0-.67-1.76-.06-2.95 0 0 .9-3.13.73-3.81 0 0 .16-.63.66-1.2zm-7.45 7.23l1.28-1.03s.89-1.03 1.67-.45l1.78.28s.67-.11.44 1.14c0 0 .06 2.56 2.73 2.96 0 0 1.06.45.56 1.87 0 0-.45 2.73-4.01 1.6 0 0-3.62-2.45-4.56-3.99 0 0-1.34-1.76.11-2.38zm16.49 3.62c1.15.57.26 2.12.26 2.12-.86 1.86-2.97 1.75-2.97 1.75-3.9-.12-4.97-4.7-4.97-4.7-1.11-1.11.63-2.06.63-2.06 1.37-1.1 2.82-.3 2.82-.3zm-14.91 1.7s2.67 3.11 7.12 2.66c0 0 4.23-.68 2.9 2.35 0 0-2.46 5.46-1.79 12.06h-6.47s-1.91-8.65-3.47-10.92c0 0-1.19-2.66-.82-4.7 0 0 .37-2.81 2.53-1.45zm11.55 3.58s3.23 0 4.5-1.7c0 0 1.06-.91 1.4.57 0 0 .28 1.13-.28 1.88 0 0-2.17 6.88-1.61 12.74h-2.62s.28-7.68-1.11-10.7c0 0-2.06-2.61-.28-2.79z"/><path id="yw4te" d="M962.5 1714.22a9.12 9.12 0 1 1 .02 18.23 9.12 9.12 0 0 1-.02-18.23z"/><path id="yw4tg" d="M962.5 1709.69a13.65 13.65 0 1 1 .02 27.3 13.65 13.65 0 0 1-.02-27.3z"/><path id="yw4ti" d="M962.5 1702.84a20.5 20.5 0 1 1 .02 40.99 20.5 20.5 0 0 1-.02-40.99z"/><clipPath id="yw4tf"><use fill="#fff" xlink:href="#yw4ta"/></clipPath><clipPath id="yw4th"><use fill="#fff" xlink:href="#yw4tb"/></clipPath><clipPath id="yw4tj"><use fill="#fff" xlink:href="#yw4tc"/></clipPath></defs><g><g transform="translate(-931 -1634)"><g><use fill="#b7e3ee" xlink:href="#yw4td"/></g><g><g><use fill="#86b1b5" xlink:href="#yw4te"/><use fill="#fff" fill-opacity="0" stroke="#4ababb" stroke-linecap="round" stroke-linejoin="round" stroke-miterlimit="50" stroke-width="4" clip-path="url(&quot;#yw4tf&quot;)" xlink:href="#yw4te"/></g><g><use fill="#86b1b5" xlink:href="#yw4tg"/><use fill="#fff" fill-opacity="0" stroke="#4ababb" stroke-linecap="round" stroke-linejoin="round" stroke-miterlimit="50" stroke-width="4" clip-path="url(&quot;#yw4th&quot;)" xlink:href="#yw4tg"/></g><g><use fill="#86b1b5" xlink:href="#yw4ti"/><use fill="#fff" fill-opacity="0" stroke="#4ababb" stroke-linecap="round" stroke-linejoin="round" stroke-miterlimit="50" stroke-width="4" clip-path="url(&quot;#yw4tj&quot;)" xlink:href="#yw4ti"/></g></g></g></g></svg>