<svg xmlns="http://www.w3.org/2000/svg" xmlns:xlink="http://www.w3.org/1999/xlink" width="96" height="85" viewBox="0 0 96 85"><defs><path id="2zjka" d="M1427 1491v-23h23v23zm2.37-11.5a9.12 9.12 0 1 0 18.25 0 9.12 9.12 0 0 0-18.25 0z"/><path id="2zjkb" d="M1422 1496v-33h33v33zm2.84-16.5a13.66 13.66 0 1 0 27.32 0 13.66 13.66 0 0 0-27.32 0z"/><path id="2zjkc" d="M1416 1502v-45h45v45zm2-22.5a20.5 20.5 0 1 0 41 0 20.5 20.5 0 0 0-41 0z"/><path id="2zjkd" d="M1401.34 1431.41c-4.65-1.91-9.55-1.42-9.55-1.42-2.58.17-2.33 1.5-2.33 1.5.83.92-.75 2.67-.75 2.67l-.66 1.66c-1.25 3.33-5.9-1.83-5.9-1.83-1.16-3.5 1.83-3.16 1.83-3.16 2.82.08 2.9-1.17 2.9-1.17.92-2.25 3.58-1.92 3.58-1.92 9.22-.74 13.38 1.63 13.38 1.63 4.36 2.62 14.45 1.87 14.45 1.87 2.5-.12 2.62 2 2.62 2 .25 3.62-5.98 1.75-5.98 1.75-4.45-.16-13.59-3.58-13.59-3.58zm38.71 2.58s-6.23 1.87-5.98-1.75c0 0 .12-2.12 2.62-2 0 0 10.1.75 14.45-1.87 0 0 4.16-2.37 13.38-1.62 0 0 2.66-.34 3.57 1.91 0 0 .09 1.26 2.91 1.17 0 0 3-.33 1.83 3.16 0 0-4.65 5.16-5.9 1.84l-.66-1.67s-1.58-1.75-.75-2.67c0 0 .25-1.33-2.33-1.5 0 0-4.9-.5-9.55 1.42 0 0-9.14 3.42-13.59 3.58zm10.98 61.69s3.24 7.74 6.9-1.5l.08 3.17s-2.08 10.65-8.23 1.9c0 0-16.86-23.22-20.19-25.97 0 0 .75 6.5-2.57 6.17l-.25-.06-.25.06c-3.32.33-2.58-6.17-2.58-6.17-3.32 2.75-20.19 25.98-20.19 25.98-6.14 8.74-8.22-1.91-8.22-1.91l.08-3.17c3.66 9.24 6.9 1.5 6.9 1.5-4.49 4.24-6.98-2.91-6.98-2.91l-.09-4.75c3.16 8.65 10.8 1.58 10.8 1.58l11.89-12.74-11.55 10.82c-7.48 6.41-10.89-1.24-10.89-1.24-.16-1 .09-4.42.09-4.42 4.98 8.25 10.47 2.92 10.47 2.92l13.46-11.4c3.98-4.42.08-1.33.08-1.33l-10.55 8.73c-9.64 7.33-13.55-3.74-13.55-3.74-.33-1 .5-3.59.5-3.59 3.4 10.58 12.63 5.17 12.63 5.17l10.06-7.74c2.49-2.17 1.99-3.08 1.99-3.08-.91-.67-2.41 1.08-2.41 1.08l-7.9 4.75c-5.14 3.32-11.13-1.67-11.13-1.67-2.66-1.58-2.32-3.83-2.32-3.83.16-2.33 1.24-1.25 1.24-1.25l4.49 3.66c5.4 3.25 14.31-3.24 14.31-3.24 4.05-2.31 3.8-3.37 3.8-3.37.07-2.19-3.3-.81-3.3-.81l-6.04 2c-9.04 2.87-12.6-3.32-12.6-3.32-1.55-1.69-.68-3.43-.68-3.43 1-1.75 1.77.1 1.77.1l3.49 3.17c5.65 3.24 14.18-.77 14.18-.77 3.62-1.2 3.68-3.25 3.68-3.25.62-2.25-2.24-1.3-2.24-1.3-8.98 1.42-16.41-2.22-16.41-2.22-2.58-1.17-2.12-2.87-2.12-2.87.25-2.08 1.41-1.67 1.41-1.67 3.66 6.08 17.12 4.19 17.12 4.19 3.67-.32 3.24-3.06 3.24-3.06-.19-2.37-3.99-1.62-3.99-1.62-8.64.5-13.8-4-13.8-4-1.24-1.08.17-3.33.17-3.33 1.08-1.75 1.75-.17 1.75-.17 3.9 6.08 14.29 4.9 14.29 4.9 5.15-.82-3.4-5.32-3.4-5.32l-5-2.16c-4.48-1.83-3.4-3.24-3.4-3.24.25-.84 1.83.08 1.83.08 9.64 2.08 10.22.33 10.22.33 1.41-1.42 2.64-.58 2.64-.58.4.72 1.82.91 3 .94 1.2-.03 2.6-.22 3.02-.94 0 0 1.23-.84 2.64.58 0 0 .58 1.75 10.22-.33 0 0 1.58-.92 1.83-.08 0 0 1.08 1.4-3.4 3.24l-5 2.16s-8.55 4.5-3.4 5.33c0 0 10.38 1.17 14.29-4.91 0 0 .66-1.58 1.74.17 0 0 1.42 2.25.17 3.33 0 0-5.15 4.5-13.8 4 0 0-3.8-.75-3.98 1.62 0 0-.44 2.74 3.24 3.06 0 0 13.46 1.9 17.12-4.19 0 0 1.16-.41 1.4 1.67 0 0 .47 1.7-2.11 2.87 0 0-7.44 3.64-16.41 2.21 0 0-2.87-.94-2.24 1.3 0 0 .06 2.07 3.67 3.26 0 0 8.54 4.01 14.2.77l3.48-3.17s.77-1.85 1.77-.1c0 0 .87 1.74-.69 3.43 0 0-3.55 6.19-12.59 3.31l-6.04-2s-3.37-1.37-3.3.82c0 0-.25 1.06 3.8 3.37 0 0 8.9 6.49 14.3 3.24l4.5-3.66s1.08-1.08 1.24 1.25c0 0 .33 2.25-2.32 3.83 0 0-5.99 5-11.14 1.67l-7.9-4.75s-1.49-1.75-2.4-1.08c0 0-.5.91 2 3.08l10.05 7.74s9.22 5.41 12.63-5.17c0 0 .83 2.59.5 3.59 0 0-3.91 11.07-13.55 3.74l-10.55-8.73s-3.9-3.09.08 1.32l13.46 11.4s5.49 5.34 10.47-2.9c0 0 .25 3.4.08 4.4 0 0-3.4 7.66-10.88 1.25l-11.55-10.82 11.88 12.74s7.65 7.07 10.8-1.58l-.08 4.75s-2.5 7.15-6.98 2.9z"/><path id="2zjke" d="M1438.5 1470.37a9.13 9.13 0 1 1 0 18.26 9.13 9.13 0 0 1 0-18.26z"/><path id="2zjkg" d="M1438.5 1465.84a13.66 13.66 0 1 1 0 27.32 13.66 13.66 0 0 1 0-27.32z"/><path id="2zjki" d="M1438.5 1459a20.5 20.5 0 1 1 0 41 20.5 20.5 0 0 1 0-41z"/><clipPath id="2zjkf"><use fill="#fff" xlink:href="#2zjka"/></clipPath><clipPath id="2zjkh"><use fill="#fff" xlink:href="#2zjkb"/></clipPath><clipPath id="2zjkj"><use fill="#fff" xlink:href="#2zjkc"/></clipPath></defs><g><g transform="translate(-1379 -1424)"><g><use fill="#b7e3ee" xlink:href="#2zjkd"/></g><g><g><use fill="#86b1b5" xlink:href="#2zjke"/><use fill="#fff" fill-opacity="0" stroke="#4ababb" stroke-linecap="round" stroke-linejoin="round" stroke-miterlimit="50" stroke-width="4" clip-path="url(&quot;#2zjkf&quot;)" xlink:href="#2zjke"/></g><g><use fill="#86b1b5" xlink:href="#2zjkg"/><use fill="#fff" fill-opacity="0" stroke="#4ababb" stroke-linecap="round" stroke-linejoin="round" stroke-miterlimit="50" stroke-width="4" clip-path="url(&quot;#2zjkh&quot;)" xlink:href="#2zjkg"/></g><g><use fill="#86b1b5" xlink:href="#2zjki"/><use fill="#fff" fill-opacity="0" stroke="#4ababb" stroke-linecap="round" stroke-linejoin="round" stroke-miterlimit="50" stroke-width="4" clip-path="url(&quot;#2zjkj&quot;)" xlink:href="#2zjki"/></g></g></g></g></svg>