<svg xmlns="http://www.w3.org/2000/svg" xmlns:xlink="http://www.w3.org/1999/xlink" width="80" height="83" viewBox="0 0 80 83"><defs><path id="hapqa" d="M931 1451v-23h23v23zm2.37-11.5a9.13 9.13 0 1 0 18.26 0 9.13 9.13 0 0 0-18.26 0z"/><path id="hapqb" d="M926 1456v-33h33v33zm2.84-16.5a13.66 13.66 0 1 0 27.32 0 13.66 13.66 0 0 0-27.32 0z"/><path id="hapqc" d="M920 1462v-45h45v45zm2-22.5a20.5 20.5 0 1 0 41 0 20.5 20.5 0 0 0-41 0z"/><path id="hapqd" d="M980.07 1481.45c-.26-1.04.06-2.57.3-3.97.89-5.26 15.74-15.9 8.78-33.84-3.92-10.1-11.5-18.64-28.97-18.64-11.22 0-20.74 3.63-24.25 10.36-1.65 3.16-3.76 6.61-4.67 9.04-.94 2.51.77 4.17-.63 7.03-.89 1.82-1.96 1.76-5.28 6.65-2.38 3.52-5.7 7.66-.88 9.17l2.86.9c0 3.13-1.37 3.6-1.37 4.61 0 1.35.86 2.07 1.77 2.31 0 0-2.34 1.7-.67 3.3 2.2 2.08.78 5.08.13 6.73-.89 2.27 1.36 5.9 5.16 6.21 4.12.34 11.38.04 11.7.04.5 0 1 .65 1.16 1.32.07.27.74 4.12 1.52 7.33h37.71c-.84-3.52-4.14-17.65-4.37-18.55z"/><path id="hapqe" d="M942.5 1430.37a9.13 9.13 0 1 1 0 18.26 9.13 9.13 0 0 1 0-18.26z"/><path id="hapqg" d="M942.5 1425.84a13.66 13.66 0 1 1 0 27.32 13.66 13.66 0 0 1 0-27.32z"/><path id="hapqi" d="M942.5 1419a20.5 20.5 0 1 1 0 41 20.5 20.5 0 0 1 0-41z"/><clipPath id="hapqf"><use fill="#fff" xlink:href="#hapqa"/></clipPath><clipPath id="hapqh"><use fill="#fff" xlink:href="#hapqb"/></clipPath><clipPath id="hapqj"><use fill="#fff" xlink:href="#hapqc"/></clipPath></defs><g><g transform="translate(-918 -1418)"><g><use fill="#b7e3ee" xlink:href="#hapqd"/></g><g><g><use fill="#86b1b5" xlink:href="#hapqe"/><use fill="#fff" fill-opacity="0" stroke="#4ababb" stroke-linecap="round" stroke-linejoin="round" stroke-miterlimit="50" stroke-width="4" clip-path="url(&quot;#hapqf&quot;)" xlink:href="#hapqe"/></g><g><use fill="#86b1b5" xlink:href="#hapqg"/><use fill="#fff" fill-opacity="0" stroke="#4ababb" stroke-linecap="round" stroke-linejoin="round" stroke-miterlimit="50" stroke-width="4" clip-path="url(&quot;#hapqh&quot;)" xlink:href="#hapqg"/></g><g><use fill="#86b1b5" xlink:href="#hapqi"/><use fill="#fff" fill-opacity="0" stroke="#4ababb" stroke-linecap="round" stroke-linejoin="round" stroke-miterlimit="50" stroke-width="4" clip-path="url(&quot;#hapqj&quot;)" xlink:href="#hapqi"/></g></g></g></g></svg>