<svg xmlns="http://www.w3.org/2000/svg" xmlns:xlink="http://www.w3.org/1999/xlink" width="86" height="94" viewBox="0 0 86 94"><defs><path id="dw7oa" d="M1398.4 1710.56a56.38 56.38 0 0 0 26.6 6.86 56.36 56.36 0 0 0 26.6-6.86c.91-.5 1.86-.12 2.04.9 1.01 5.64-.4 11.22-5.8 13.65-5.89 2.66-13.69 10.71-22.84 10.71s-16.95-8.05-22.84-10.7c-5.4-2.44-6.81-8.02-5.8-13.66.18-1.02 1.13-1.4 2.04-.9zm52.9-39.49a4.3 4.3 0 0 1-2.09 2.66 21.07 21.07 0 0 1-8.67 1.93c-6.42 0-11.41-3.12-14.1-5.27a2.33 2.33 0 0 0-2.84 0c-2.71 2.14-7.71 5.27-14.14 5.27-3.31 0-6.24-.84-8.67-1.93a4.31 4.31 0 0 1-2.09-2.66 220.67 220.67 0 0 0-4.06-15c-2.26-7.39 1.59-11.36 9.22-9.82 6.22 1.26 13.82 2.37 21.14 2.37s14.92-1.11 21.14-2.37c7.63-1.54 11.48 2.43 9.22 9.81a220 220 0 0 0-4.06 15.01zm.5 34.6l.25.57.16.4c.09.21-.58.8-1.5 1.27a56.09 56.09 0 0 1-25.71 6.4 56.07 56.07 0 0 1-25.71-6.4c-.92-.47-1.59-1.06-1.5-1.28l.16-.39c1.2-2.71 2.23-5.89 2.86-9.48.14-.8.9-1.5 1.71-1.52 15.87-.38 31.73 11.93 47.59 10.06.81-.1 1.57.05 1.7.36zm-26.8.82c1.04 0 1.88-.98 1.88-2.19 0-1.2-.84-3-1.88-3s-1.88 1.8-1.88 3c0 1.21.84 2.2 1.88 2.2zm-24.66-26.35c-.14-.8-.28-1.62-.44-2.44-.2-1 .39-1.43 1.34-1.02 2.34 1 5.1 1.73 8.22 1.73 6.44 0 11.44-3.12 14.12-5.27a2.3 2.3 0 0 1 2.84 0c2.68 2.15 7.68 5.27 14.12 5.27 3.11 0 5.88-.73 8.22-1.73.95-.4 1.53.01 1.34 1.02a85.81 85.81 0 0 0-1.54 12.52c-.03.8-.7 1.5-1.52 1.52-15 .14-30-10.85-45-10.25a1.67 1.67 0 0 1-1.7-1.35z"/><path id="dw7ob" d="M1465.34 1696.76c.68.03 1.23.6 1.23 1.27v5.62c0 .68-.55 1.22-1.23 1.19a1.3 1.3 0 0 1-1.22-1.3v-5.61c0-.69.54-1.2 1.22-1.17zm-56.03-11.52l.1.03c.64.18 1.17.88 1.17 1.56v5.62c0 .68-.52 1.07-1.18.9l-.09-.03a1.7 1.7 0 0 1-1.18-1.56v-5.61c0-.68.53-1.09 1.18-.9zm-16.54-2.26c.7.13 1.25.78 1.25 1.46v5.62a.99.99 0 0 1-1.21 1 1.52 1.52 0 0 1-1.25-1.44V1684a1 1 0 0 1 1.21-1.02zm24.42 4.31l.13.05c.64.21 1.17.95 1.17 1.62v5.62c0 .68-.52 1.05-1.17.83l-.12-.04a1.83 1.83 0 0 1-1.17-1.62v-5.62c0-.68.52-1.06 1.16-.84zm-32.3-6.4a1.3 1.3 0 0 1 1.23 1.3v5.62c0 .67-.55 1.2-1.23 1.17a1.28 1.28 0 0 1-1.23-1.27v-5.62c0-.67.55-1.22 1.23-1.2zm72.53 13.73c.7.13 1.25.77 1.25 1.45v5.61c0 .68-.54 1.14-1.21 1.02a1.54 1.54 0 0 1-1.24-1.46v-5.62c0-.68.53-1.12 1.2-1zm-16.68.26l.12.04c.64.2 1.17.91 1.17 1.6v5.61c0 .68-.53 1.07-1.17.86l-.12-.03a1.79 1.79 0 0 1-1.17-1.6v-5.62c0-.68.53-1.06 1.17-.86zm-15.66-4.56l.15.06c.64.23 1.16.96 1.16 1.65v5.02c0 .68-.52 1.05-1.16.82l-.15-.05a1.88 1.88 0 0 1-1.15-1.65v-5.02c0-.69.52-1.05 1.15-.83zm8 2.62l.1.04c.65.2 1.18.91 1.18 1.6v5.6c0 .69-.53 1.08-1.17.88l-.11-.04a1.79 1.79 0 0 1-1.17-1.6v-5.62c0-.68.52-1.06 1.17-.86zm-31.77-8.7l.1.03c.64.18 1.17.88 1.17 1.56v5.62c0 .68-.52 1.07-1.18.9l-.09-.03a1.72 1.72 0 0 1-1.18-1.55v-5.62c0-.68.53-1.09 1.18-.91zm47 9.99a1.72 1.72 0 0 1 1.27 1.6v5.6c0 .69-.52 1.08-1.18.9a1.7 1.7 0 0 1-1.27-1.57v-5.62c0-.68.53-1.09 1.18-.91z"/></defs><g><g transform="translate(-1382 -1643)"><g><use fill="#b7e3ee" xlink:href="#dw7oa"/></g><g><use fill="#4ababb" xlink:href="#dw7ob"/></g></g></g></svg>