<svg xmlns="http://www.w3.org/2000/svg" xmlns:xlink="http://www.w3.org/1999/xlink" width="67" height="82" viewBox="0 0 67 82"><defs><path id="mpnxa" d="M482 1493v-23h23v23zm2.37-11.5a9.12 9.12 0 1 0 18.25 0 9.12 9.12 0 0 0-18.25 0z"/><path id="mpnxb" d="M477 1498v-33h33v33zm2.84-16.5a13.66 13.66 0 1 0 27.32 0 13.66 13.66 0 0 0-27.32 0z"/><path id="mpnxc" d="M471 1504v-45h45v45zm2-22.5a20.5 20.5 0 1 0 41 0 20.5 20.5 0 0 0-41 0z"/><path id="mpnxd" d="M482.35 1465.7s-3.5 5.14-6.18 12.26c0 0-.43 3.26-3.76 4.65 0 0-6.34 3-10.16 5.25 0 0-7 3.04-7.08-.5l.32-1.76s.16-2.98-.92-4.3c0 0-.87-1.18-.55-2.08 0 0 .63.38 1.15-.09 0 0 .34-.31.65-.16 0 0 .96.27 1.69-.34 0 0 .4-.35.86-.02 0 0 .8.4 1.46-.22 0 0 .4-.34.72-.1 0 0 .93.44 2.3-.2 0 0 .38-.24.74.02 0 0 1.8.27 2.23-1.7l.4-3.65s.22-3.42-.58-4.5c0 0-1.13-2.57-.11-4.09 0 0 2.5-1.5 4.03.19 0 0 2.2 2.67 5.43 2.25 0 0 3.12-.27 3.55-2.14 0 0 1.07-2.9 3.17-2.42 0 0 2.41.76.64 3.64zm-29.07 4.18c2-2.65-1.01-8.61-1.01-8.61l.4-3.78 1.31-1.1c2.28-1.01 1.35-3.76 1.35-3.76 1.23 2.2-.44 5.02-.44 5.02a5.12 5.12 0 0 0 .78 4.08c.43.56 1.48 3.11 1.48 3.11.59 1.77 3.16.98 3.16.98 1.37-.24 3.7-1.44 3.7-1.44-.48 1.92.58 4.02.58 4.02.72 1.29.62 3.53.62 3.53.13 1.13-.73 1-.73 1-1.7-.37-1.9.11-1.9.11-.17.32-.58.06-.58.06-2.09-1.05-2.34-.12-2.34-.12-.14.5-.4.25-.4.25-1.55-1.1-1.67-.38-1.67-.38-.12.4-.75.18-.75.18-1.1-.68-1.67-.36-1.67-.36-.1.22-.52 0-.52 0-.73-.52-1.72-.1-1.72-.1-.64.28-.7-.3-.7-.3-.12-1.07 1.05-2.4 1.05-2.4zM487 1468c-.86-.54-1.88.16-1.88.16-1.34.8-1.24-.16-1.24-.16 1.3-3.22-.5-5.65-.5-5.65-2.94-2.81-4.55.21-4.55.21-.94 1.1-2.74.11-2.74.11-6.85-1.93-14.89 1.9-14.89 1.9-2.1 1.02-2.68-.26-2.68-.26l-1.72-3.49c-.65-1.28.86-2.14.86-2.14 4.51-5.78-2.85-9.74-2.85-9.74-1.56-.64.27-8.73.27-8.73 2.58-12.85 22.68-14.67 22.68-14.67 25.47-2.57 29.85 11.35 29.85 11.35 3.7 5.7 2.5 10.92 2.5 10.92-.89 4.02-4.78 3-4.78 3-2.96-.48-3.71 1.18-3.71 1.18-.86 1.23.32 2.46.32 2.46 4.3 7.93-8.06 14.35-8.06 14.35-3.39 1.98-5.38-.75-5.38-.75-.21.64-1.5-.05-1.5-.05zm21.17-5.52c-5.75 5.94-11.5 5.84-11.5 5.84 11.02-7.18 6.32-13.5 6.32-13.5-1.98-3.5 3.46-2.86 3.46-2.86 5.4 1.09 5.08-6.14 5.08-6.14 3.47 9.03-3.36 16.66-3.36 16.66zm-21.76 11.8s.16-2.45 1.2-3.3c0 0 7.26-1.4 6.46.36 0 0 .92 2.13 3.99 2.01 0 0 2.21 0 3.14 1.69 0 0 1.9 2 .12 2.8 0 0-1.09.37-2.25-.4 0 0-.65-.35-1.42-.31 0 0-1.97-.4-3.42-.97 0 0-1.13-.52-2.34-.44l-1.41.28s-4.11 1.33-4.07-1.72zm14.87 6.87s1.9 2 .12 2.8c0 0-1.09.37-2.25-.4 0 0-.65-.36-1.41-.32 0 0-1.98-.4-3.43-.96 0 0-1.13-.53-2.34-.44l-1.41.28s-4.11 1.32-4.07-1.73c0 0 .16-2.45 1.2-3.3 0 0 7.26-1.4 6.46.37 0 0 .92 2.13 3.99 2 0 0 2.22 0 3.14 1.7zm0 6.66s1.9 2 .12 2.8c0 0-1.09.37-2.25-.4 0 0-.65-.36-1.41-.31 0 0-1.98-.41-3.43-.97 0 0-1.13-.52-2.34-.44l-1.41.28s-4.11 1.33-4.07-1.72c0 0 .16-2.45 1.2-3.3 0 0 7.26-1.4 6.46.36 0 0 .92 2.13 3.99 2.01 0 0 2.22 0 3.14 1.69zm-38.75-14.32c.03-.39 1.14-.44 1.14-.44 1.1-.11 1.19.35 1.19.35.17.28.16 1.1.16 1.1.01.68-.9.5-.9.5-.26-.13-.47.04-.47.04-.34.17-.84.06-.84.06-.58-.35-.28-1.6-.28-1.6zm.18 3.73s-.3-1.26.28-1.6c0 0 .5-.12.84.05 0 0 .21.18.47.04 0 0 .92-.18.9.5 0 0 .02.82-.16 1.1 0 0-.08.46-1.19.36 0 0-1.11-.06-1.14-.45zm-2.5.56s-.48-1.2.06-1.63c0 0 .48-.19.84-.05 0 0 .23.14.46-.03 0 0 .89-.3.96.37 0 0 .13.81 0 1.12 0 0-.03.46-1.14.5 0 0-1.11.1-1.19-.28zm-2.4.3s-.43-1.21.03-1.62c0 0 .42-.18.73-.04 0 0 .2.15.4-.02 0 0 .77-.28.84.39 0 0 .13.81.02 1.11 0 0 0 .46-.98.49 0 0-.96.07-1.04-.3zm-2.34.3s-.44-1.31 0-1.76c0 0 .42-.18.74-.03 0 0 .2.16.4-.01 0 0 .77-.3.85.43 0 0 .14.88.03 1.2 0 0 0 .5-.97.51 0 0-.97.08-1.05-.34zm-1.9.34s-.57-1.26-.25-1.73c0 0 .32-.22.6-.1 0 0 .2.15.34-.03 0 0 .6-.36.76.35 0 0 .25.86.2 1.19 0 0 .07.5-.73.58 0 0-.8.15-.93-.26zm6.4-3.62c-.58-.35-.28-1.6-.28-1.6.02-.4 1.14-.45 1.14-.45 1.1-.11 1.19.35 1.19.35.17.28.15 1.1.15 1.1.02.68-.9.5-.9.5-.25-.13-.46.04-.46.04-.34.17-.84.06-.84.06zm-2.56.15c-.52-.35-.25-1.61-.25-1.61.02-.39 1.03-.44 1.03-.44.99-.12 1.06.35 1.06.35.16.28.14 1.1.14 1.1.02.68-.8.5-.8.5-.23-.13-.42.04-.42.04-.3.18-.76.06-.76.06zm-1.64-.18c-.3.18-.75.06-.75.06-.53-.35-.26-1.61-.26-1.61.03-.4 1.03-.44 1.03-.44 1-.12 1.06.35 1.06.35.16.28.14 1.1.14 1.1.02.68-.8.5-.8.5-.23-.14-.42.04-.42.04zm-2.5.08c-.3.22-.75.08-.75.08-.52-.4-.25-1.85-.25-1.85.02-.44 1.03-.5 1.03-.5.99-.13 1.06.4 1.06.4.16.32.14 1.27.14 1.27.02.77-.8.56-.8.56-.23-.15-.42.04-.42.04z"/><path id="mpnxe" d="M493.5 1472.37a9.12 9.12 0 1 1 0 18.25 9.12 9.12 0 0 1 0-18.25z"/><path id="mpnxg" d="M493.5 1467.84a13.66 13.66 0 1 1 0 27.32 13.66 13.66 0 0 1 0-27.32z"/><path id="mpnxi" d="M493.5 1461a20.5 20.5 0 1 1 0 41 20.5 20.5 0 0 1 0-41z"/><clipPath id="mpnxf"><use fill="#fff" xlink:href="#mpnxa"/></clipPath><clipPath id="mpnxh"><use fill="#fff" xlink:href="#mpnxb"/></clipPath><clipPath id="mpnxj"><use fill="#fff" xlink:href="#mpnxc"/></clipPath></defs><g><g transform="translate(-450 -1421)"><g><use fill="#b7e3ee" xlink:href="#mpnxd"/></g><g><g><use fill="#86b1b5" xlink:href="#mpnxe"/><use fill="#fff" fill-opacity="0" stroke="#4ababb" stroke-linecap="round" stroke-linejoin="round" stroke-miterlimit="50" stroke-width="4" clip-path="url(&quot;#mpnxf&quot;)" xlink:href="#mpnxe"/></g><g><use fill="#86b1b5" xlink:href="#mpnxg"/><use fill="#fff" fill-opacity="0" stroke="#4ababb" stroke-linecap="round" stroke-linejoin="round" stroke-miterlimit="50" stroke-width="4" clip-path="url(&quot;#mpnxh&quot;)" xlink:href="#mpnxg"/></g><g><use fill="#86b1b5" xlink:href="#mpnxi"/><use fill="#fff" fill-opacity="0" stroke="#4ababb" stroke-linecap="round" stroke-linejoin="round" stroke-miterlimit="50" stroke-width="4" clip-path="url(&quot;#mpnxj&quot;)" xlink:href="#mpnxi"/></g></g></g></g></svg>