<svg xmlns="http://www.w3.org/2000/svg" xmlns:xlink="http://www.w3.org/1999/xlink" width="129" height="81" viewBox="0 0 129 81"><defs><path id="uw56a" d="M694 1935v-23h23v23zm2.38-11.5a9.12 9.12 0 1 0 18.24 0 9.12 9.12 0 0 0-18.24 0z"/><path id="uw56b" d="M689 1940v-33h33v33zm2.84-16.5a13.66 13.66 0 1 0 27.32 0 13.66 13.66 0 0 0-27.32 0z"/><path id="uw56c" d="M683 1946v-45h45v45zm2-22.5a20.5 20.5 0 1 0 41 0 20.5 20.5 0 0 0-41 0z"/><path id="uw56d" d="M795.98 1938.85s.52 3.48-5.09 2.2c0 0-4.33-.53-7.53 1.64 0 0-3.6 1.88-3.73-3.6 0 0-.77-4.41 2.48-3.33 0 0 4.23 2.61 9.1 1.46 0 0 4.45-1.54 4.77 1.63zm-18.04-2.36s-.19 2 .13 3.43c0 0 .32 2.44-1.7 1.61 0 0-6.96-2.43-13.15-.3 0 0-2.05 1.4-1.78-4.45 0 0-.45-4.87 2.2-3.78 0 0 6.42 2.86 11.36 1.6 0 0 3.4-1.22 2.94 1.89zm-17.38-2.21s-1.31 2-1.58 3.77c0 0-.78 2.81-3.4.57 0 0-9.3-7.28-19.8-9.15 0 0-3.81.12-.37-5.95 0 0 1.85-5.53 5.32-2.58 0 0 8.22 7.37 16.36 9.34 0 0 5.79.97 3.47 4zm-34.38-2.02s-.7.81-.7 1.6c0 0-.25 1.25-2.26-.06 0 0-7.04-4.34-14.36-6.26 0 0-2.6-.33-.85-2.84 0 0 .7-2.4 3.35-.67 0 0 6.33 4.28 12.06 6.01 0 0 4.03 1.04 2.76 2.22zm23.54 5.82s-.83 1.22-.73 2.01c0 0-.78 1.46-2.95.45 0 0-8.16-3.15-15.68-4.03 0 0-3.16-1.24-1.79-3.97 0 0 1.04-3.5 3.9-2.17 0 0 7.24 5.1 13.16 6.01 0 0 5.19.35 4.09 1.7zm-15.18-21.57c5.02 2.26 1.42 4.11 1.42 4.11-3.6 1.93-6.27 7.96-6.27 7.96-1.51 2.76-5.78.17-5.78.17-6.03-2.77-4.02-5.11-4.02-5.11l5.95-7.55c3.6-3.6 8.7.42 8.7.42zm-11.12-4.4c4.32 1.95 1.22 3.53 1.22 3.53-3.1 1.66-5.4 6.86-5.4 6.86-1.3 2.38-4.97.15-4.97.15-5.2-2.39-3.46-4.4-3.46-4.4l5.11-6.5c3.1-3.1 7.5.36 7.5.36zm-33.91-2.75s7.92 4.13 15.06-.67c0 0 6.92-5.14 10.16-.22 0 0 1.12.44-1.79 2.56 0 0-3.8 5.15-3.8 6.26 0 0 .57 4.14-7.92 3.13 0 0-8.7-3.69-14.17-2.01 0 0-4.35 1-3.35-4.24 0 0 1.23-7.83 5.8-4.81zm-2.18 11.85s3.18-3.19 8.37-.68c0 0 5.36 2.02 8.54 2.86 0 0 3.68 1.5 1.5 6.36 0 0-1 2.02-5.85-.16 0 0-2.52-1-5.36 3.52 0 0-8.37 8.37-17.92 1.5 0 0-6.36-7.2.67-12.06 0 0 3.35-4.03 10.05-1.34zm-.48-16.2c-.4-2.18.88-4.99.88-4.99 1.69-2.41 3.75-33.03 3.75-33.03h7c-.72 7 1.93 34.23 1.93 34.23 1.44 3.22-3.13 2.5-3.13 2.5a9.5 9.5 0 0 0-7.7 2.8c-2.33 1.45-2.73-1.52-2.73-1.52zm15.53-5.23c1.5-3.2 1.2-32.79 1.2-32.79h2.83c-.6 6.21 1.74 34.96 1.74 34.96.6.78.3 1.98.3 1.98-.36 1.57-1.5.6-1.5.6-1.38-1.8-4.88-1.8-4.88-1.8-1.92-.18.3-2.95.3-2.95z"/><path id="uw56e" d="M705.5 1914.38a9.12 9.12 0 1 1 0 18.24 9.12 9.12 0 0 1 0-18.24z"/><path id="uw56g" d="M705.5 1909.84a13.66 13.66 0 1 1 0 27.32 13.66 13.66 0 0 1 0-27.32z"/><path id="uw56i" d="M705.5 1903a20.5 20.5 0 1 1 0 41 20.5 20.5 0 0 1 0-41z"/><clipPath id="uw56f"><use fill="#fff" xlink:href="#uw56a"/></clipPath><clipPath id="uw56h"><use fill="#fff" xlink:href="#uw56b"/></clipPath><clipPath id="uw56j"><use fill="#fff" xlink:href="#uw56c"/></clipPath></defs><g><g transform="translate(-669 -1865)"><g><use fill="#b7e3ee" xlink:href="#uw56d"/></g><g><g><use fill="#86b1b5" xlink:href="#uw56e"/><use fill="#fff" fill-opacity="0" stroke="#4ababb" stroke-linecap="round" stroke-linejoin="round" stroke-miterlimit="50" stroke-width="4" clip-path="url(&quot;#uw56f&quot;)" xlink:href="#uw56e"/></g><g><use fill="#86b1b5" xlink:href="#uw56g"/><use fill="#fff" fill-opacity="0" stroke="#4ababb" stroke-linecap="round" stroke-linejoin="round" stroke-miterlimit="50" stroke-width="4" clip-path="url(&quot;#uw56h&quot;)" xlink:href="#uw56g"/></g><g><use fill="#86b1b5" xlink:href="#uw56i"/><use fill="#fff" fill-opacity="0" stroke="#4ababb" stroke-linecap="round" stroke-linejoin="round" stroke-miterlimit="50" stroke-width="4" clip-path="url(&quot;#uw56j&quot;)" xlink:href="#uw56i"/></g></g></g></g></svg>