<svg xmlns="http://www.w3.org/2000/svg" xmlns:xlink="http://www.w3.org/1999/xlink" width="135" height="156" viewBox="0 0 135 156"><defs><path id="6tdfa" d="M755 1696v-23h23v23zm2.38-11.6a9.12 9.12 0 1 0 18.23-.03 9.12 9.12 0 0 0-18.23.02z"/><path id="6tdfb" d="M750 1701v-33h33v33zm2.84-16.6a13.65 13.65 0 1 0 27.3-.03 13.65 13.65 0 0 0-27.3.02z"/><path id="6tdfc" d="M744 1707v-46h45v46zm2-22.62c0 11.3 9.18 20.46 20.5 20.46s20.5-9.16 20.5-20.46c0-11.31-9.18-20.47-20.5-20.47a20.48 20.48 0 0 0-20.5 20.47z"/><path id="6tdfd" d="M678.57 1687.42s-1.5-1.2-3.42-1.15l-.76.1s-1.12.29-1.16-.87c0 0 .02-.82 2.33-.8 0 0 3.16.02 3.91.5 0 0 .93.14 1 1.38 0 0 .62 1.85-.57 1.63 0 0-.51.14-1.33-.79zm1.84 35.1c.91-.34.69 1.22.69 1.22.13 1-.59 1.23-.59 1.23-.52.49-3.03.97-3.03.97-1.84.35-1.97-.3-1.97-.3-.14-.93.79-.87.79-.87l.62-.03a4.74 4.74 0 0 0 2.55-1.4c.51-.86.94-.82.94-.82zm.53-34.55s-.2-2.27.35-2.38c0 0 .6-.5 1.41-.01 0 0 3.65 1.8 6.75 1 0 0 1.93-.34 1.6.79 0 0-.63.73-.21 1.8 0 0 .37 1.38-.98.97 0 0-2.69-3.13-7.08-2.07 0 0-1.6.64-1.84-.1zm10.42 1.32s.38-2.26 1.04-2.24c0 0 .84-.35 1.64.31 0 0 3.75 2.62 7.56 2.56 0 0 2.33.11 1.63 1.12 0 0-.91.58-.7 1.7 0 0 .05 1.45-1.4.72 0 0-2.29-3.66-7.66-3.65 0 0-2.02.25-2.11-.52zm-9.34 32.36c1.6.1 2.52-1.6 2.52-1.6.83-.72 1.55 1.2 1.55 1.2.62 1.4-.33 1.42-.33 1.42-2.43.23-2.84 1-2.84 1-.24.53-.5.72-.5.72-.68.4-.8-.4-.8-.4.03-.67-.3-1.5-.3-1.5-.74-.96.7-.84.7-.84zm5.04-2.66c3.76-.57 5.09-3.62 5.09-3.62.68-.83 1.31.06 1.31.06-.06.67.87 1.42.87 1.42 1.53 1.68-.28 1.85-.28 1.85-3.53.77-5.94 2.44-5.94 2.44l-.38.6c-.85.83-1.02-.06-1.02-.06-.12-.81-.65-1.47-.65-1.47-1.11-1.16 1-1.22 1-1.22zm7.07-3.08c-.86-2.2 1.6-2.33 1.6-2.33 4.03-.86 7.35-5.54 7.35-5.54 1.71-1.78 2.98-.4 2.98-.4.91 1.69-1 2.08-1 2.08-.91.35-6.47 5.03-6.47 5.03-2.61 4.37-4.46 1.16-4.46 1.16zm-31.4 4.4a4.88 4.88 0 0 0 3.06-1.52c1.03-.74 1.25.91 1.25.91.56 1.95-.92 1.68-.92 1.68-1.37-.41-2.85.26-2.85.26-1.84 1.07-2.04-.22-2.04-.22-.24-1.15 1.5-1.1 1.5-1.1zm-6.69-9.37a4.9 4.9 0 0 0 3.2-1.2c1.1-.64 1.14 1.03 1.14 1.03.37 1.99-1.08 1.57-1.08 1.57-1.32-.55-2.85-.04-2.85-.04-1.94.89-2.02-.41-2.02-.41-.12-1.17 1.61-.95 1.61-.95zm2.13-10.28c1.86.06 3.2-1.2 3.2-1.2 1.1-.64 1.14 1.02 1.14 1.02.37 2-1.08 1.58-1.08 1.58-1.32-.55-2.86-.03-2.86-.03-1.93.88-2-.42-2-.42-.13-1.18 1.6-.95 1.6-.95zm10.34 16.9c2.8-.16 5.92-2.13 5.92-2.13 1.3-.78 1.6 1.2 1.6 1.2.8 2.26-.46 1.98-.46 1.98-3.56-.02-7.04 1.86-7.04 1.86-1 .59-1.09-.41-1.09-.41.01-.61-.3-1.37-.3-1.37-.6-1.17 1.37-1.13 1.37-1.13zm-6.45-8.5c2.75 0 5.92-1.79 5.92-1.79 1.33-.7 1.52 1.29 1.52 1.29.65 2.3-.56 1.95-.56 1.95-3.5-.23-7.01 1.44-7.01 1.44-1 .53-1.05-.47-1.05-.47.04-.6-.23-1.39-.23-1.39-.52-1.19 1.4-1.04 1.4-1.04zm2.04-10.18c2.42.2 5.3-1.34 5.3-1.34 1.2-.6 1.28 1.4 1.28 1.4.47 2.34-.58 1.9-.58 1.9-3.08-.49-6.25.92-6.25.92-.91.45-.9-.55-.9-.55.06-.6-.14-1.4-.14-1.4-.4-1.23 1.29-.93 1.29-.93zm13.51 15.5c6.9-1.08 8.52-4.06 8.52-4.06 1.15-.97 1.4.08 1.4.08a5.11 5.11 0 0 0 1.25 2.89c1.13 1.72-1 1.3-1 1.3-3.26.02-9.29 3-9.29 3-1.75 1.21-1.77-.08-1.77-.08-.12-.8-.54-1.86-.54-1.86-.6-1.34 1.43-1.27 1.43-1.27zm-5.94-7.92c7.47-.16 9.63-2.9 9.63-2.9 1.36-.81 1.47.26 1.47.26a4.87 4.87 0 0 0 .89 3.03c.93 1.86-1.25 1.16-1.25 1.16-3.46-.42-10.3 1.75-10.3 1.75-2.03.97-1.85-.33-1.85-.33-.01-.8-.3-1.9-.3-1.9-.44-1.41 1.71-1.07 1.71-1.07zm-.38-6.5s-.06-1.08-.26-1.8c0 0-.48-1.1 1.45-.82 0 0 6.16-.04 8.89-1.4 0 0 1.6-1.26 1.32.68 0 0-.46 1.29.07 2.97 0 0 .19 1-1.14.66 0 0-2.48-1.83-8.65.18 0 0-1.67.92-1.68-.47zm30.96 7.55s-4.73 1.07-8.56 4.41c0 0-3.11 3.08-5.08-.11 0 0-1.16-1.94 1.43-2.85 0 0 8.6-2.35 10.45-4.2 0 0 1.95-2.13 2.87-.58 0 0 .12 1.66.57 1.73 0 0 1.21 1.11-1.68 1.6zm-1.91-9.36s-5.76-.6-11.32 1.46c0 0-4.67 2.06-5.72-1.91 0 0-.61-2.41 2.66-2.42 0 0 10.61.65 13.39-.58 0 0 2.86-1.83 3.33.1 0 0-.2 1.62.15 2.3 0 0 .28 1.9-2.5 1.05zm.65 4.9s-5.98.2-11.39 3.05c0 0-4.5 2.72-6.14-1.13 0 0-.96-2.34 2.39-2.8 0 0 10.97-.82 13.64-2.45 0 0 2.7-2.1 3.45-.24 0 0-.15 1.66.46 2.17 0 0 .88 1.96-2.4 1.4zm3.67-12.3c1.38-.08 1.73.87 1.73.87.97 1.14.52 2.5.52 2.5-.93 1.67-3.5.8-3.5.8-1.05-.69-.28-1.7-.28-1.7.46-.58.6-1.67.6-1.67.15-.64.93-.8.93-.8zm.41 4.57c1.7-.22 1.84 1.41 1.84 1.41.35 1.67-2 1.77-2 1.77-1.2.27-1.5-1.21-1.5-1.21-.32-.76-.22-1.75-.22-1.75-.06-.4 1.88-.22 1.88-.22zm-1.1 8.79s.63-1.46 2.07-1.73c0 0 2.71-.67 3.2-.29 0 0 .79.45.87.88 0 0 1.4 2.62-1.68 3.7 0 0-1.57 1.13-2.76.07 0 0-1.54-.62-1.7-2.63zm.53-5.05c.5.02 2.52-1.04 2.52-1.04.73-.6 2.04-.38 2.04-.38 1.32.26.62.81.62.81-1.07.59-.64 2.26-.64 2.26.04.8-.55.72-.55.72-.5-.06-2.96.68-2.96.68-1 .3-1.34-.58-1.34-.58-.7-.83-.42-1.83-.42-1.83.32-.43.73-.64.73-.64zm4.8-6.04c1.19.46 3.4 2.66 3.4 2.66 1.3 2.35-.52 3.04-.52 3.04-.91.55-1.38-.13-1.38-.13-.66-1.82-2.43-1.5-2.43-1.5-.82.33-.84-.15-.84-.15l-.46-1.22c-.5-.46.08-1.24.08-1.24l.52-1.04c.22-1.1 1.62-.42 1.62-.42zm.44 8.99s-.76-.91-.2-2.03c0 0 .4-1.36 1.32-.73 0 0 3.31.1 3.95 2.83 0 0 .39 1.47-.77 2.34 0 0-.94.84-1.5.12zm51.95-39.3s1.92 2.89 5.87 5.07c0 0 6.03 2.3 2.27 5.68 0 0-2.59 4.17-5.34 3.16 0 0-8.95 5.17-9.8-.92 0 0-2.81-11.95-10.07-27.96l.38.18s-.71-1.25 0-2c.7-.74 1.3-.94 2-1 .78-.06 2.06.52 2.66.82 4.03 7.23 8.26 13.64 12.03 16.97zm15.5 21.1s.18 2.56 1.15 4.01c0 0-.4 2.57-3.8.61 0 0-10.2-1.27-23.9 5.14 0 0-16.63 7.2-26.57 8.05 0 0-2.56.74-3.75 1.54 0 0-2.83 2.06-3.14-1.56l.89-1.54 1.77-2.51c-2.5 3.13-4.57.4-4.57.4-.23-1.5-1.79-4.03-1.79-4.03l-1.08-1.45c-1.62-2.62 5.39-2.04 5.39-2.04 2.03-.2 6.66-1.49 6.66-1.49 11.04-3.5 38.04-9.44 38.04-9.44 4.89-.57 8.42-3 8.42-3 2.5-1.56 3.42 1.27 3.42 1.27.53 2.22 1.72 3.44 1.72 3.44.35.53.56 1.12.68 1.59.27.2.44.53.47 1zm-30.17 6.62s6.85-3.78 11.4-4.12l13.3-2.7-10.56-.08c-21.16 2.94-41.32 14.02-41.32 14.02s13.73 1.4 27.18-7.12z"/><path id="6tdfe" d="M766.5 1675.28a9.12 9.12 0 1 1 .02 18.24 9.12 9.12 0 0 1-.02-18.24z"/><path id="6tdfg" d="M766.5 1670.75a13.65 13.65 0 1 1 .02 27.3 13.65 13.65 0 0 1-.02-27.3z"/><path id="6tdfi" d="M766.5 1663.9a20.48 20.48 0 0 1 0 40.94 20.48 20.48 0 0 1-20.5-20.46c0-11.31 9.18-20.47 20.5-20.47z"/><clipPath id="6tdff"><use fill="#fff" xlink:href="#6tdfa"/></clipPath><clipPath id="6tdfh"><use fill="#fff" xlink:href="#6tdfb"/></clipPath><clipPath id="6tdfj"><use fill="#fff" xlink:href="#6tdfc"/></clipPath></defs><g><g transform="translate(-653 -1572)"><g><use fill="#b7e3ee" xlink:href="#6tdfd"/></g><g><g><use fill="#86b1b5" xlink:href="#6tdfe"/><use fill="#fff" fill-opacity="0" stroke="#4ababb" stroke-linecap="round" stroke-linejoin="round" stroke-miterlimit="50" stroke-width="4" clip-path="url(&quot;#6tdff&quot;)" xlink:href="#6tdfe"/></g><g><use fill="#86b1b5" xlink:href="#6tdfg"/><use fill="#fff" fill-opacity="0" stroke="#4ababb" stroke-linecap="round" stroke-linejoin="round" stroke-miterlimit="50" stroke-width="4" clip-path="url(&quot;#6tdfh&quot;)" xlink:href="#6tdfg"/></g><g><use fill="#86b1b5" xlink:href="#6tdfi"/><use fill="#fff" fill-opacity="0" stroke="#4ababb" stroke-linecap="round" stroke-linejoin="round" stroke-miterlimit="50" stroke-width="4" clip-path="url(&quot;#6tdfj&quot;)" xlink:href="#6tdfi"/></g></g></g></g></svg>