<svg xmlns="http://www.w3.org/2000/svg" xmlns:xlink="http://www.w3.org/1999/xlink" width="64" height="81" viewBox="0 0 64 81"><defs><path id="k6z9a" d="M1191 1494v-23h23v23zm2.38-11.5a9.12 9.12 0 1 0 18.24 0 9.12 9.12 0 0 0-18.24 0z"/><path id="k6z9b" d="M1186 1499v-33h33v33zm2.84-16.5a13.66 13.66 0 1 0 27.32 0 13.66 13.66 0 0 0-27.32 0z"/><path id="k6z9c" d="M1180 1505v-45h45v45zm2-22.5a20.5 20.5 0 1 0 41 0 20.5 20.5 0 0 0-41 0z"/><path id="k6z9d" d="M1182.98 1469.74c-.43 2.94 1.13 3.57 1.13 3.57 1.79.82 3.2-.47 3.2-.47a.81.81 0 0 1 .7-.27c.19-.02.46 0 .72.27 0 0 1.4 1.3 3.2.47 0 0 1.55-.63 1.12-3.57 0 0-1.04-4.75-3.51-6.65 0 0-.26-.07-.44-.63 0 0-.2-.9-1.09-.98-.89.07-1.08.98-1.08.98-.18.56-.44.63-.44.63-2.47 1.9-3.5 6.65-3.5 6.65zm5.03 10.52c-.2.08-.31-.04-.31-.04-.32-.5-.83-.55-.83-.55-1.16-.14-1.39.69-1.39.69-.21.44-.86-.1-.86-.1-.88-.66-1.46-.04-1.46-.04-.38.24-.71-.1-.71-.1-1.6-1.12-2.17-.33-2.17-.33-.06.15-.19.08-.19.08-.78-.58-1.45-.14-1.45-.14-.16.1-.27-.01-.27-.01a.4.4 0 0 0-.26 0c-.4.23-1.04-.1-1.04-.1-.68.14-1.19-.29-1.19-.29-.67-.45-.07-2.78-.07-2.78.06-1.58-3.35-3.35-3.35-3.35a6.61 6.61 0 0 0-2.48-1.28c-2.11-.43-4.17-2.85-4.17-2.85-1.24-1.66.09-2.66.09-2.66 1.1-.28 1.28-4.02 1.28-4.02-.27-2.66 2.48-7.5 2.48-7.5 1.62-1.68-2.66-7.5-2.66-7.5-2.27-9.48 4.22-15.17 4.22-15.17a27.46 27.46 0 0 1 14.95-7.11s.78-.14 2.01-.12a12.31 12.31 0 0 1 1.02.06c3.59.31 9.8 1.8 15.61 7.17 0 0 6.48 5.69 4.22 15.17 0 0-4.28 5.82-2.66 7.5 0 0 2.75 4.84 2.48 7.5 0 0 .18 3.74 1.28 4.02 0 0 1.33 1 .1 2.66 0 0-2.07 2.42-4.18 2.85 0 0-1.6.42-2.48 1.28 0 0-3.4 1.77-3.35 3.35 0 0 .6 2.33-.07 2.78 0 0-.5.43-1.2.29 0 0-.62.33-1.03.1 0 0-.14-.05-.26 0 0 0-.1.12-.27 0 0 0-.67-.43-1.45.15 0 0-.13.07-.19-.08 0 0-.57-.8-2.17.32 0 0-.33.35-.7.11 0 0-.6-.62-1.47.03 0 0-.65.55-.86.11 0 0-.23-.83-1.4-.69 0 0-.5.06-.82.55 0 0-.11.12-.3.04l-.02-.28zm-4-21.1s.83-5.22-3.34-6.07c0 0-2.3-.3-3.86.24 0 0-6.5 1.04-6.65 6.25 0 0-.69 4.18 2.66 5.7 0 0 1.98 1.05 4.96-.05l3.35-1.28s3.07-1.33 2.89-4.8zm-18.39-18.4s-.4 5.24.83 7.4c0 0 3.67 4.67 2.14 7.08 0 0-2.39 3.6-2.08 7.4 0 0-4.92-10.4-.89-21.88zm2.6 31.14s3.3 1.14 3.73 1.68c0 0 .61 8.79 3.55 10.05 0 0 .1 1.49 1.16 1.64 0 0 .25-.02.37.16 0 0 .1.45 1.4.38 0 0 .22-.06.33.21 0 0 .1.46.76.33 0 0 .2-.11.34.13 0 0 .29.75 1.71.5 0 0 .32-.16.52.18 0 0 .49.86 1.25.31 0 0 .5-.58.94-.22 0 0 .4.41.9.05 0 0 .56-.39.9.03 0 0 .77.59 1.18.1 0 0 .27-.34.75-.26.49-.08.76.26.76.26.41.49 1.18-.1 1.18-.1.34-.42.9-.03.9-.03.5.36.9-.05.9-.05.43-.36.94.22.94.22.76.55 1.25-.3 1.25-.3.2-.35.52-.2.52-.2 1.42.26 1.71-.49 1.71-.49.14-.24.34-.13.34-.13.66.13.76-.33.76-.33.11-.27.32-.2.32-.2 1.3.06 1.41-.39 1.41-.39.12-.18.37-.16.37-.16 1.07-.15 1.16-1.64 1.16-1.64 2.94-1.26 3.55-10.05 3.55-10.05.43-.54 3.73-1.68 3.73-1.68-1.4 1.32-1.76 5.24-1.76 5.24l-.78 9.95c.23 2.19-1.97 3.7-1.97 3.7l-7.16 7.4c-3.53 2.57-6.37 1.62-6.37 1.62a5.7 5.7 0 0 0-1.04-.26s-1.14-.21-2.47.26c0 0-2.84.95-6.37-1.62l-7.16-7.4s-2.2-1.51-1.97-3.7l-.78-9.95s-.35-3.92-1.76-5.24zm19.48 8.7l.06 3.86s-.03.56-1.5.44c0 0-1.34.16-1.4-.54l.58-3.54s.06-.62 1.15-.81c0 0 .96-.1 1.11.59zm-2.9.3l-.12 3.34s-.05.49-1.2.32c0 0-1.07.08-1.09-.53l.61-3.04s.08-.53.94-.64c0 0 .77-.05.86.55zm-2.36-.35l-.12 3.34s-.05.49-1.2.32c0 0-1.07.08-1.09-.52l.03-.1c-.14.1-.43.18-1 .1 0 0-1 .07-1.03-.48l.01-.03c-.1 0-.25 0-.42-.02 0 0-.76.06-.77-.39l.03-.15c-.11.03-.26.03-.47 0 0 0-.68.05-.7-.35l.4-2s.05-.34.6-.42c0 0 .49-.03.54.36l-.02.63.06-.3s.05-.39.67-.48c0 0 .54-.03.6.41v.2l.05-.22s.07-.48.88-.58c0 0 .72-.04.8.5l-.08 2.46.44-2.19s.07-.53.94-.65c0 0 .76-.03.85.56zm12.46-16.6l3.35 1.28c2.98 1.1 4.96.05 4.96.05 3.34-1.52 2.66-5.7 2.66-5.7-.14-5.21-6.65-6.25-6.65-6.25-1.56-.53-3.86-.24-3.86-.24-4.17.85-3.35 6.07-3.35 6.07-.18 3.46 2.9 4.79 2.9 4.79zm14.62-1.32c.3-3.79-2.08-7.4-2.08-7.4-1.53-2.4 2.14-7.08 2.14-7.08 1.23-2.15.83-7.4.83-7.4 4.03 11.48-.89 21.88-.89 21.88zm-20.08 17.38c1.09.2 1.15.8 1.15.8l.58 3.55c-.06.7-1.4.54-1.4.54-1.47.12-1.5-.44-1.5-.44l.06-3.86c.15-.68 1.11-.6 1.11-.6zm2.65.34c.86.11.94.64.94.64l.61 3.04c-.02.6-1.09.53-1.09.53-1.15.17-1.2-.32-1.2-.32l-.12-3.34c.1-.6.86-.55.86-.55zm2.35-.36c.87.12.94.65.94.65l.44 2.2-.09-2.47c.09-.54.8-.5.8-.5.82.1.9.58.9.58l.04.23v-.2c.06-.45.6-.42.6-.42.62.1.67.48.67.48l.06.3-.02-.63c.05-.39.54-.36.54-.36.55.08.6.42.6.42l.4 2c-.02.4-.7.35-.7.35-.2.03-.36.03-.47 0l.03.15c-.01.45-.77.39-.77.39-.17.02-.31.03-.42.02v.03c-.01.55-1.02.48-1.02.48-.58.08-.86 0-1-.1l.02.1c-.01.6-1.08.52-1.08.52-1.15.17-1.2-.32-1.2-.32l-.12-3.34c.09-.6.85-.56.85-.56zm-5.61 7.2l-.04-1.9s.02-.29.75-.22c0 0 .66-.08.7.26l-.3 1.76s-.03.3-.56.4c0 0-.48.04-.55-.3zm-2.07.28c-.54-.1-.57-.4-.57-.4l-.29-1.75c.04-.34.7-.27.7-.27.73-.06.74.22.74.22l-.03 1.9c-.07.35-.55.3-.55.3zm-2-.2c-.53-.09-.56-.4-.56-.4l-.3-1.74c.04-.34.7-.27.7-.27.73-.06.75.22.75.22l-.03 1.9c-.08.35-.56.3-.56.3zm-1.9.03c-.54-.1-.57-.4-.57-.4l-.28-1.75c.03-.34.7-.26.7-.26.72-.06.73.21.73.21l-.03 1.91c-.07.34-.55.3-.55.3zm-2.04-.45c-.54-.1-.57-.4-.57-.4l-.29-1.75c.03-.34.7-.26.7-.26.73-.07.74.22.74.22l-.03 1.9c-.07.34-.55.3-.55.3zm-1.55-.66c-.48-.08-.5-.35-.5-.35l-.26-1.54c.03-.3.62-.24.62-.24.64-.06.65.2.65.2l-.03 1.68c-.06.3-.48.25-.48.25zm-1.49-.52c-.47-.08-.5-.35-.5-.35l-.25-1.55c.03-.3.61-.23.61-.23.64-.05.66.2.66.2l-.03 1.68c-.07.3-.49.25-.49.25zm-1.34-.64c-.48-.09-.5-.36-.5-.36l-.26-1.54c.03-.3.62-.24.62-.24.64-.05.65.2.65.2l-.03 1.68c-.06.3-.48.26-.48.26zm14.36 1.88l-.03-1.91s.01-.28.74-.21c0 0 .66-.09.7.26l-.3 1.75s-.02.3-.56.4c0 0-.48.04-.55-.29zm1.76.1l-.03-1.9s.02-.3.74-.23c0 0 .67-.08.7.27l-.29 1.75s-.03.3-.56.4c0 0-.48.04-.56-.3zm2.04-.5l-.03-1.91s.02-.28.75-.22c0 0 .66-.08.7.26l-.3 1.76s-.03.3-.56.4c0 0-.48.05-.56-.3zm1.67-.57l-.02-1.64s.01-.25.63-.19c0 0 .57-.07.6.23l-.25 1.5s-.02.26-.48.34c0 0-.41.04-.48-.24zm1.34-.55l-.03-1.64s.01-.24.63-.18c0 0 .57-.07.6.22l-.25 1.5s-.02.26-.48.34c0 0-.41.04-.47-.24zm1.42-.62l-.03-1.64s.01-.23.64-.18c0 0 .57-.07.6.23l-.25 1.5s-.03.26-.49.33c0 0-.4.05-.47-.24z"/><path id="k6z9e" d="M1202.5 1473.38a9.13 9.13 0 1 1 0 18.25 9.13 9.13 0 0 1 0-18.25z"/><path id="k6z9g" d="M1202.5 1468.84a13.66 13.66 0 1 1 0 27.32 13.66 13.66 0 0 1 0-27.32z"/><path id="k6z9i" d="M1202.5 1462a20.5 20.5 0 1 1 0 41 20.5 20.5 0 0 1 0-41z"/><clipPath id="k6z9f"><use fill="#fff" xlink:href="#k6z9a"/></clipPath><clipPath id="k6z9h"><use fill="#fff" xlink:href="#k6z9b"/></clipPath><clipPath id="k6z9j"><use fill="#fff" xlink:href="#k6z9c"/></clipPath></defs><g><g transform="translate(-1160 -1423)"><g><use fill="#b7e3ee" xlink:href="#k6z9d"/></g><g><g><use fill="#86b1b5" xlink:href="#k6z9e"/><use fill="#fff" fill-opacity="0" stroke="#4ababb" stroke-linecap="round" stroke-linejoin="round" stroke-miterlimit="50" stroke-width="4" clip-path="url(&quot;#k6z9f&quot;)" xlink:href="#k6z9e"/></g><g><use fill="#86b1b5" xlink:href="#k6z9g"/><use fill="#fff" fill-opacity="0" stroke="#4ababb" stroke-linecap="round" stroke-linejoin="round" stroke-miterlimit="50" stroke-width="4" clip-path="url(&quot;#k6z9h&quot;)" xlink:href="#k6z9g"/></g><g><use fill="#86b1b5" xlink:href="#k6z9i"/><use fill="#fff" fill-opacity="0" stroke="#4ababb" stroke-linecap="round" stroke-linejoin="round" stroke-miterlimit="50" stroke-width="4" clip-path="url(&quot;#k6z9j&quot;)" xlink:href="#k6z9i"/></g></g></g></g></svg>