<svg xmlns="http://www.w3.org/2000/svg" xmlns:xlink="http://www.w3.org/1999/xlink" width="93" height="83" viewBox="0 0 93 83"><defs><path id="gjrqa" d="M1204.8 1928.49c0 5.08 1.71 9.74 4.58 13.53a21.21 21.21 0 0 1-10.13 2.61c-4.24 0-8.03-.02-8.55-.07-16.27-1.18-25.71-20.23-25.71-34.32-1.02-15.42 14.05-20.96 27.7-18.9a48.5 48.5 0 0 1-5.45-15.78l3.44-.53a44.2 44.2 0 0 0 5.18 14.86c3.63-9.26 14.97-14.46 24.32-11.42-3.43 9.18-14.65 14.59-24.2 11.66.42.71.77 1.27.99 1.57 12.74-2.6 27.47 1.5 29.39 14.26-12 .68-21.57 10.51-21.57 22.53zm23.5-8.93a50.98 50.98 0 0 1-6.66 15.63 9.03 9.03 0 0 1-3.08-6.7 9 9 0 0 1 6.65-8.62c.8-.21 1.6-.37 2.46-.37.22 0 .42.04.64.06z"/><path id="gjrqb" d="M1252.25 1954.36c-.45.43-1.03.66-1.64.66-.66 0-1.26-.26-1.71-.73l-10.8-11.09a18.23 18.23 0 0 1-24.8-3.76 17.73 17.73 0 0 1-3.81-10.95c0-9.53 7.56-17.32 17.06-17.9.37-.02.74-.06 1.12-.06 10.03 0 18.2 8.06 18.2 17.96 0 4.24-1.52 8.31-4.28 11.55l10.72 11c.91.94.88 2.42-.06 3.32zm-11.13-25.87a13.37 13.37 0 0 0-14.96-13.18 13.35 13.35 0 0 0-11.93 13.18c0 2.85.92 5.48 2.47 7.65a13.47 13.47 0 0 0 10.97 5.62c7.42 0 13.45-5.94 13.45-13.27z"/></defs><g><g transform="translate(-1162 -1874)"><g><use fill="#b7e3ee" xlink:href="#gjrqa"/></g><g><use fill="#4ababb" xlink:href="#gjrqb"/></g></g></g></svg>