<svg xmlns="http://www.w3.org/2000/svg" xmlns:xlink="http://www.w3.org/1999/xlink" width="80" height="92" viewBox="0 0 80 92"><defs><path id="7xrqa" d="M1447.07 1925.6c-.26-1.04.06-2.57.3-3.96.89-5.28 15.74-15.95 8.78-33.94-3.92-10.12-11.5-18.69-28.97-18.69-11.22 0-20.74 3.64-24.25 10.39-1.65 3.17-3.76 6.63-4.67 9.06-.94 2.52.77 4.19-.63 7.05-.89 1.83-1.96 1.78-5.28 6.67-2.38 3.53-5.7 7.68-.88 9.19l2.86.9c0 3.15-1.37 3.61-1.37 4.63 0 1.35.86 2.08 1.77 2.32 0 0-2.34 1.7-.67 3.3 2.2 2.08.78 5.1.13 6.75-.89 2.28 1.36 5.92 5.16 6.23 4.12.34 11.38.04 11.7.04.5 0 1 .65 1.16 1.32.07.28.74 4.13 1.52 7.35h37.71c-.84-3.53-4.14-17.7-4.37-18.6z"/><path id="7xrqb" d="M1436.89 1885.23c.1.87.1 1.74 0 2.61a.65.65 0 0 1-.68.57l-.14-.01a2.54 2.54 0 0 0-1.7 4.42c.24.24.27.62.06.88-.54.68-1.17 1.3-1.85 1.84a.64.64 0 0 1-.87-.07 2.65 2.65 0 0 0-2.84-.65c-.98.4-1.61 1.39-1.58 2.46a.63.63 0 0 1-.56.65 10.59 10.59 0 0 1-2.59 0 .64.64 0 0 1-.56-.68 2.56 2.56 0 0 0-1.55-2.5 2.65 2.65 0 0 0-2.87.65.64.64 0 0 1-.87.07 11.41 11.41 0 0 1-1.82-1.84.63.63 0 0 1 .07-.87 2.56 2.56 0 0 0 .65-2.84 2.52 2.52 0 0 0-2.37-1.57c-.33 0-.71-.25-.75-.57-.1-.87-.1-1.75 0-2.62.04-.33.3-.57.67-.56 1.12 0 2.1-.61 2.5-1.55.41-1 .15-2.15-.65-2.87a.64.64 0 0 1-.06-.87c.54-.69 1.17-1.3 1.85-1.85a.64.64 0 0 1 .87.07c.68.75 1.9 1.04 2.84.65.98-.4 1.61-1.39 1.57-2.45a.64.64 0 0 1 .57-.66c.86-.1 1.73-.1 2.59 0 .33.05.58.34.56.68a2.55 2.55 0 0 0 1.55 2.5c.95.39 2.18.11 2.86-.65a.64.64 0 0 1 .88-.07c.66.54 1.28 1.16 1.82 1.84.2.26.17.64-.07.87a2.56 2.56 0 0 0-.65 2.84c.4.96 1.33 1.58 2.38 1.58.33 0 .7.24.74.57zm-11.4 5.13a3.84 3.84 0 1 0 0-7.67 3.84 3.84 0 0 0 0 7.67z"/><path id="7xrqc" d="M1448.89 1866.22c.1.87.1 1.75 0 2.62a.64.64 0 0 1-.68.56h-.14c-1.01 0-1.96.63-2.35 1.56-.41.99-.15 2.14.64 2.87.25.23.28.6.07.87-.54.69-1.17 1.3-1.85 1.84a.64.64 0 0 1-.87-.08 2.64 2.64 0 0 0-2.84-.64c-.98.4-1.61 1.39-1.58 2.45a.64.64 0 0 1-.56.66 12.35 12.35 0 0 1-2.59-.01.63.63 0 0 1-.56-.67 2.55 2.55 0 0 0-1.55-2.5 2.65 2.65 0 0 0-2.87.65.63.63 0 0 1-.87.07 11.25 11.25 0 0 1-1.82-1.84.64.64 0 0 1 .07-.86 2.57 2.57 0 0 0 .65-2.85 2.51 2.51 0 0 0-2.37-1.58c-.33 0-.71-.24-.75-.56-.1-.87-.1-1.75 0-2.62.04-.33.3-.57.67-.56 1.12 0 2.1-.61 2.5-1.56.41-.98.15-2.14-.65-2.87a.63.63 0 0 1-.06-.87c.54-.68 1.17-1.3 1.85-1.84.27-.2.64-.17.87.08.68.75 1.9 1.03 2.84.64.98-.4 1.61-1.38 1.57-2.45a.64.64 0 0 1 .57-.66c.86-.1 1.73-.1 2.59 0 .33.05.58.34.56.68a2.55 2.55 0 0 0 1.55 2.5c.95.4 2.18.1 2.86-.65a.63.63 0 0 1 .88-.07c.66.54 1.28 1.16 1.82 1.84.2.27.17.64-.07.87a2.57 2.57 0 0 0-.65 2.84c.4.96 1.33 1.57 2.38 1.57.33 0 .7.25.74.57zm-11.4 5.14a3.83 3.83 0 1 0 0-7.67 3.83 3.83 0 0 0 0 7.67z"/><path id="7xrqd" d="M1449.94 1895.56c.07.64.07 1.3 0 1.93a.47.47 0 0 1-.5.41h-.1a1.88 1.88 0 0 0-1.26 3.27c.18.18.2.46.04.65-.4.5-.86.96-1.37 1.36a.48.48 0 0 1-.64-.05c-.5-.55-1.4-.77-2.1-.48a1.9 1.9 0 0 0-1.17 1.81c0 .25-.17.46-.42.5-.31.02-.62.04-.93.04-.33 0-.66-.02-.98-.06a.46.46 0 0 1-.42-.5c.05-.79-.42-1.54-1.15-1.84-.7-.3-1.61-.09-2.12.48a.48.48 0 0 1-.65.05 8.6 8.6 0 0 1-1.34-1.36.47.47 0 0 1 .05-.64c.58-.53.77-1.38.48-2.1-.3-.73-1.01-1.19-1.75-1.17-.24 0-.53-.18-.56-.41a8.53 8.53 0 0 1 0-1.94.47.47 0 0 1 .5-.42c.83 0 1.55-.44 1.85-1.14.3-.74.11-1.6-.48-2.12a.47.47 0 0 1-.05-.65c.4-.5.86-.96 1.37-1.36.2-.15.48-.13.65.06.5.55 1.4.75 2.1.47a1.9 1.9 0 0 0 1.16-1.81c0-.25.18-.46.42-.49a8.52 8.52 0 0 1 1.92 0c.24.04.43.25.41.5-.04.8.42 1.54 1.15 1.85.7.29 1.61.09 2.12-.48.17-.18.45-.2.65-.04.49.39.94.85 1.34 1.35.16.2.13.47-.05.64a1.88 1.88 0 1 0 1.28 3.27c.25 0 .52.18.55.42zm-8.45 5.46a4.51 4.51 0 1 0 0-9.03 4.51 4.51 0 0 0 0 9.03z"/></defs><g><g transform="translate(-1385 -1854)"><g><use fill="#b7e3ee" xlink:href="#7xrqa"/></g><g><use fill="#4ababb" xlink:href="#7xrqb"/></g><g><use fill="#4ababb" xlink:href="#7xrqc"/></g><g><use fill="#4ababb" xlink:href="#7xrqd"/></g></g></g></svg>