<svg xmlns="http://www.w3.org/2000/svg" xmlns:xlink="http://www.w3.org/1999/xlink" width="110" height="101" viewBox="0 0 110 101"><defs><path id="8s1ia" d="M517 1663v-23h23v23zm2.38-11.45a9.13 9.13 0 1 0 18.26.01 9.13 9.13 0 0 0-18.26-.01z"/><path id="8s1ib" d="M512 1668v-33h33v33zm2.84-16.44c0 7.56 6.12 13.69 13.66 13.69s13.66-6.13 13.66-13.69-6.12-13.68-13.66-13.68a13.67 13.67 0 0 0-13.66 13.68z"/><path id="8s1ic" d="M506 1675v-46h45v46zm2-23.45a20.52 20.52 0 0 0 20.5 20.54c11.32 0 20.5-9.2 20.5-20.54a20.52 20.52 0 0 0-20.5-20.55c-11.32 0-20.5 9.2-20.5 20.55z"/><path id="8s1id" d="M462.34 1652.46c-4.65-1.92-9.55-1.42-9.55-1.42-2.58.17-2.33 1.5-2.33 1.5.83.92-.75 2.67-.75 2.67l-.66 1.68c-1.25 3.33-5.9-1.84-5.9-1.84-1.16-3.5 1.83-3.17 1.83-3.17 2.82.08 2.9-1.17 2.9-1.17.92-2.25 3.58-1.92 3.58-1.92 9.22-.75 13.38 1.62 13.38 1.62 4.36 2.64 14.45 1.89 14.45 1.89 2.5-.13 2.62 2 2.62 2 .25 3.63-5.98 1.75-5.98 1.75-4.45-.16-13.59-3.59-13.59-3.59zm38.71 2.59s-6.23 1.88-5.98-1.75c0 0 .12-2.13 2.62-2 0 0 10.1.74 14.45-1.88 0 0 4.16-2.38 13.38-1.63 0 0 2.66-.33 3.57 1.92 0 0 .09 1.25 2.91 1.17 0 0 3-.34 1.83 3.17 0 0-4.65 5.17-5.9 1.84l-.66-1.67s-1.58-1.76-.75-2.68c0 0 .25-1.34-2.33-1.5 0 0-4.9-.5-9.55 1.42 0 0-9.14 3.42-13.59 3.59zm10.98 61.84s3.24 7.76 6.9-1.5l.08 3.17s-2.08 10.68-8.23 1.92c0 0-16.86-23.29-20.19-26.04 0 0 .75 6.5-2.57 6.18l-.25-.06-.25.06c-3.32.33-2.58-6.18-2.58-6.18-3.32 2.75-20.19 26.04-20.19 26.04-6.15 8.76-8.22-1.92-8.22-1.92l.08-3.17c3.66 9.26 6.9 1.5 6.9 1.5-4.49 4.25-6.98-2.92-6.98-2.92l-.09-4.76c3.16 8.68 10.8 1.59 10.8 1.59l11.89-12.77-11.55 10.84c-7.48 6.43-10.89-1.24-10.89-1.24-.16-1 .09-4.43.09-4.43 4.98 8.27 10.47 2.92 10.47 2.92l13.46-11.43c3.98-4.42.08-1.33.08-1.33l-10.55 8.76c-9.64 7.34-13.55-3.76-13.55-3.76-.33-1 .5-3.59.5-3.59 3.4 10.6 12.63 5.18 12.63 5.18l10.06-7.77c2.49-2.16 1.99-3.08 1.99-3.08-.91-.67-2.4 1.08-2.4 1.08l-7.9 4.76c-5.15 3.34-11.14-1.67-11.14-1.67-2.66-1.58-2.32-3.84-2.32-3.84.16-2.33 1.24-1.25 1.24-1.25l4.49 3.67c5.4 3.26 14.31-3.25 14.31-3.25 4.05-2.32 3.8-3.38 3.8-3.38.07-2.2-3.3-.82-3.3-.82l-6.04 2c-9.04 2.89-12.6-3.31-12.6-3.31-1.55-1.69-.68-3.44-.68-3.44 1-1.76 1.77.1 1.77.1l3.49 3.17c5.65 3.26 14.18-.77 14.18-.77 3.62-1.2 3.68-3.25 3.68-3.25.62-2.26-2.24-1.32-2.24-1.32-8.98 1.44-16.41-2.2-16.41-2.2-2.58-1.18-2.12-2.89-2.12-2.89.25-2.09 1.41-1.67 1.41-1.67 3.66 6.1 17.12 4.2 17.12 4.2 3.67-.32 3.24-3.07 3.24-3.07-.19-2.38-3.99-1.63-3.99-1.63-8.64.5-13.8-4-13.8-4-1.24-1.1.17-3.34.17-3.34 1.08-1.76 1.75-.17 1.75-.17 3.9 6.1 14.29 4.92 14.29 4.92 5.15-.83-3.4-5.34-3.4-5.34l-5-2.17c-4.48-1.83-3.4-3.25-3.4-3.25.25-.84 1.83.08 1.83.08 9.64 2.09 10.22.34 10.22.34 1.41-1.43 2.64-.59 2.64-.59.4.72 1.82.92 3 .95 1.2-.03 2.6-.23 3.02-.95 0 0 1.23-.84 2.64.59 0 0 .58 1.75 10.22-.34 0 0 1.58-.92 1.83-.08 0 0 1.08 1.42-3.4 3.25l-5 2.17s-8.55 4.51-3.4 5.34c0 0 10.38 1.17 14.29-4.92 0 0 .66-1.59 1.74.17 0 0 1.42 2.25.17 3.34 0 0-5.15 4.5-13.8 4 0 0-3.8-.75-3.98 1.63 0 0-.44 2.75 3.24 3.07 0 0 13.46 1.9 17.12-4.2 0 0 1.16-.42 1.4 1.67 0 0 .47 1.71-2.11 2.88 0 0-7.44 3.65-16.41 2.21 0 0-2.87-.94-2.24 1.32 0 0 .06 2.06 3.67 3.25 0 0 8.54 4.03 14.2.77l3.48-3.17s.77-1.86 1.77-.1c0 0 .87 1.75-.69 3.44 0 0-3.55 6.2-12.59 3.32l-6.04-2s-3.37-1.38-3.3.8c0 0-.25 1.07 3.8 3.4 0 0 8.9 6.5 14.3 3.24l4.5-3.67s1.08-1.08 1.24 1.25c0 0 .33 2.26-2.32 3.84 0 0-5.99 5-11.14 1.67l-7.9-4.76s-1.49-1.75-2.4-1.08c0 0-.5.92 2 3.08l10.05 7.77s9.22 5.42 12.63-5.18c0 0 .83 2.59.5 3.6 0 0-3.91 11.1-13.55 3.75l-10.55-8.76s-3.9-3.1.08 1.33l13.46 11.43s5.49 5.35 10.47-2.92c0 0 .25 3.42.08 4.43 0 0-3.4 7.67-10.88 1.24l-11.55-10.84 11.88 12.77s7.65 7.09 10.8-1.59l-.08 4.76s-2.5 7.17-6.98 2.92z"/><path id="8s1ie" d="M528.5 1642.4a9.13 9.13 0 1 1-.02 18.27 9.13 9.13 0 0 1 .02-18.26z"/><path id="8s1ig" d="M528.5 1637.88c7.54 0 13.66 6.12 13.66 13.68s-6.12 13.69-13.66 13.69a13.67 13.67 0 0 1-13.66-13.69c0-7.56 6.12-13.68 13.66-13.68z"/><path id="8s1ii" d="M528.5 1631c11.32 0 20.5 9.2 20.5 20.55a20.52 20.52 0 0 1-20.5 20.54c-11.32 0-20.5-9.2-20.5-20.54a20.52 20.52 0 0 1 20.5-20.55z"/><clipPath id="8s1if"><use fill="#fff" xlink:href="#8s1ia"/></clipPath><clipPath id="8s1ih"><use fill="#fff" xlink:href="#8s1ib"/></clipPath><clipPath id="8s1ij"><use fill="#fff" xlink:href="#8s1ic"/></clipPath></defs><g><g transform="translate(-440 -1630)"><g><use fill="#b7e3ee" xlink:href="#8s1id"/></g><g><use fill="#86b1b5" xlink:href="#8s1ie"/><use fill="#fff" fill-opacity="0" stroke="#4ababb" stroke-linecap="round" stroke-linejoin="round" stroke-miterlimit="50" stroke-width="4" clip-path="url(&quot;#8s1if&quot;)" xlink:href="#8s1ie"/></g><g><use fill="#86b1b5" xlink:href="#8s1ig"/><use fill="#fff" fill-opacity="0" stroke="#4ababb" stroke-linecap="round" stroke-linejoin="round" stroke-miterlimit="50" stroke-width="4" clip-path="url(&quot;#8s1ih&quot;)" xlink:href="#8s1ig"/></g><g><use fill="#86b1b5" xlink:href="#8s1ii"/><use fill="#fff" fill-opacity="0" stroke="#4ababb" stroke-linecap="round" stroke-linejoin="round" stroke-miterlimit="50" stroke-width="4" clip-path="url(&quot;#8s1ij&quot;)" xlink:href="#8s1ii"/></g></g></g></svg>